<?xml version="1.0" encoding="UTF-8" standalone="no"?>
<!-- Created with Inkscape (http://www.inkscape.org/) -->

<svg
   xmlns:dc="http://purl.org/dc/elements/1.1/"
   xmlns:cc="http://creativecommons.org/ns#"
   xmlns:rdf="http://www.w3.org/1999/02/22-rdf-syntax-ns#"
   xmlns:svg="http://www.w3.org/2000/svg"
   xmlns="http://www.w3.org/2000/svg"
   xmlns:sodipodi="http://sodipodi.sourceforge.net/DTD/sodipodi-0.dtd"
   xmlns:inkscape="http://www.inkscape.org/namespaces/inkscape"
   id="svg3395"
   version="1.1"
   inkscape:version="0.91 r"
   width="253.75"
   height="251.25"
   viewBox="0 0 253.75 251.25"
   sodipodi:docname="unknown.svg">
  <metadata
     id="metadata3401">
    <rdf:RDF>
      <cc:Work
         rdf:about="">
        <dc:format>image/svg+xml</dc:format>
        <dc:type
           rdf:resource="http://purl.org/dc/dcmitype/StillImage" />
        <dc:title></dc:title>
      </cc:Work>
    </rdf:RDF>
  </metadata>
  <defs
     id="defs3399" />
  <sodipodi:namedview
     pagecolor="#ffffff"
     bordercolor="#666666"
     borderopacity="1"
     objecttolerance="10"
     gridtolerance="10"
     guidetolerance="10"
     inkscape:pageopacity="0"
     inkscape:pageshadow="2"
     inkscape:window-width="1366"
     inkscape:window-height="716"
     id="namedview3397"
     showgrid="false"
     inkscape:zoom="0.76691183"
     inkscape:cx="-301.05076"
     inkscape:cy="-75.877953"
     inkscape:window-x="0"
     inkscape:window-y="25"
     inkscape:window-maximized="1"
     inkscape:current-layer="svg3395" />
  <path
     style="fill:#2e2e2e;fill-opacity:1"
     d="m 8.9474042,245.79912 c -4.53855,-2.7676 -7.36244,-8.7704 -6.39691,-13.59806 0.73439,-3.67194 27.7040698,-65.35174 30.5392598,-69.84344 0.92808,-1.47033 12.58005,-8.35152 25.89325,-15.29152 l 24.20582,-12.61818 7.2288,4.35297 c 13.998796,8.42963 19.407646,9.88422 36.754386,9.88422 17.34674,0 22.75559,-1.45459 36.7544,-9.88422 l 7.22879,-4.35297 24.20582,12.61818 c 13.3132,6.94 24.96694,13.82119 25.89718,15.29152 3.32901,5.26183 29.92477,66.43793 30.54509,70.26041 0.37623,2.31848 -0.18978,5.4921 -1.39528,7.82329 -4.19702,8.11613 2.22586,7.71511 -123.48642,7.70996 C 17.472894,248.14628 12.639294,248.05041 8.9474042,245.79912 Z M 114.67201,130.11725 C 94.061524,124.38231 77.969204,105.59461 72.811314,81.245102 67.895284,58.037333 73.792994,29.937744 86.541794,15.826347 96.689224,4.5943585 116.90357,-1.1423756 136.98961,1.5095046 165.96558,5.3350879 180.75558,23.969134 182.9425,59.405963 185.74671,104.8454 151.46327,140.35452 114.67201,130.11725 Z"
     id="path3405"
     inkscape:connector-curvature="0" />
  <path
     style="fill:#ed2039"
     d="m 132.14111,204.76709 c -3.33685,-0.0856 -4.52458,-0.18717 -5.85075,-0.50025 -0.49801,-0.11756 -1.01393,-0.21375 -1.14648,-0.21375 -0.13255,0 -0.40743,-0.0695 -0.61086,-0.15454 -0.20342,-0.085 -0.5684,-0.15525 -0.81104,-0.15613 -0.24265,-7.2e-4 -0.78888,-0.0879 -1.21387,-0.19335 -0.42498,-0.1055 -1.00451,-0.22266 -1.28783,-0.26035 -0.28333,-0.0377 -0.74694,-0.11234 -1.03027,-0.16585 -0.28333,-0.0535 -0.9324,-0.17387 -1.44238,-0.26745 -0.50998,-0.0936 -1.73857,-0.37523 -2.7302,-0.62588 -0.99163,-0.25067 -2.03478,-0.5036 -2.31811,-0.56208 -0.28333,-0.0585 -0.81649,-0.16808 -1.18481,-0.24354 -1.22102,-0.25018 -1.58964,-0.34405 -2.40917,-0.61355 -0.44676,-0.14693 -1.25809,-0.34148 -1.80297,-0.43235 -0.57892,-0.0966 -1.22623,-0.28154 -1.55736,-0.44507 -0.31164,-0.15391 -0.7289,-0.31082 -0.92723,-0.34864 -0.5013,-0.0956 -2.07256,-0.56946 -2.29872,-0.69317 -0.10266,-0.0562 -0.51993,-0.18859 -0.92724,-0.29426 -1.12815,-0.29269 -3.020123,-0.97503 -3.882888,-1.40037 -1.597045,-0.78733 -2.234676,-1.23569 -2.642503,-1.8581 -0.347147,-0.52982 0.132781,-1.36994 0.875819,-1.53314 0.335756,-0.0737 1.91008,0.17742 2.539384,0.40513 0.226655,0.082 0.528008,0.15166 0.669668,0.15476 0.32617,0.008 0.9407,0.20163 2.0975,0.66386 0.50197,0.20058 1.0815,0.39492 1.28783,0.43186 0.20634,0.0369 0.66393,0.20475 1.01687,0.37289 0.35296,0.16811 0.95566,0.39073 1.33935,0.4947 0.3837,0.10397 1.4508,0.47049 2.37136,0.81451 0.92054,0.34401 1.74447,0.62548 1.83093,0.62548 0.0865,0 0.58507,0.16798 1.108,0.37329 0.52293,0.20532 1.20578,0.40669 1.51742,0.44751 0.31166,0.0408 0.91437,0.20283 1.33935,0.36005 0.42499,0.15721 1.21315,0.37531 1.75146,0.48467 0.53832,0.10935 1.28012,0.28887 1.64842,0.39895 1.25342,0.37457 1.84201,0.50547 2.79278,0.62106 0.52236,0.0635 1.23197,0.20584 1.5769,0.31625 0.34491,0.11041 0.95166,0.24749 1.34831,0.3046 0.39666,0.0571 0.97897,0.14789 1.29405,0.20171 0.31506,0.0538 0.73231,0.0983 0.92723,0.0988 0.19491,7.3e-4 1.02664,0.12123 1.84828,0.26819 0.82164,0.14696 1.95751,0.30422 2.52416,0.34947 0.56664,0.0453 1.58661,0.13341 2.26659,0.19592 4.76625,0.43811 7.48193,0.54229 14.16324,0.54336 6.55462,7.3e-4 7.75609,-0.0435 10.09955,-0.37487 0.59498,-0.0841 1.5454,-0.19983 2.11205,-0.25713 1.61462,-0.16331 5.26404,-0.99856 6.32247,-1.44707 0.37584,-0.15925 0.87341,-0.34023 1.10572,-0.40217 0.569,-0.15171 2.75815,-1.19861 2.92383,-1.39825 0.14554,-0.17535 0.9757,-0.56924 1.19977,-0.56924 0.0776,0 0.31514,-0.15595 0.52779,-0.34655 0.21266,-0.19062 0.52854,-0.41906 0.70195,-0.50769 0.33182,-0.16956 1.80185,-1.31332 2.41491,-1.87892 0.19833,-0.18297 0.49968,-0.37672 0.66967,-0.43058 0.16999,-0.0538 0.36546,-0.21002 0.43435,-0.34709 0.0689,-0.13706 0.25877,-0.3652 0.42195,-0.50699 0.54123,-0.47024 1.06529,-1.32109 1.25536,-2.03814 0.10092,-0.38076 0.25397,-0.85457 0.34012,-1.05289 0.28544,-0.65717 0.41616,-2.00851 0.34349,-3.55076 -0.0751,-1.595 -0.18976,-2.17794 -0.66903,-3.40355 -0.17727,-0.45331 -0.32253,-0.87895 -0.32278,-0.94585 -7.3e-4,-0.16756 -0.37109,-0.74959 -0.95348,-1.49818 -0.26915,-0.34596 -0.48938,-0.6672 -0.48938,-0.71386 0,-0.0467 -0.19704,-0.20872 -0.43786,-0.36011 -0.24083,-0.15138 -0.49326,-0.35318 -0.56096,-0.44843 -0.0678,-0.0952 -0.39224,-0.35382 -0.72119,-0.57456 -0.32894,-0.22076 -0.76736,-0.54112 -0.97426,-0.7119 -0.4044,-0.33386 -0.79887,-0.63016 -1.1678,-0.87719 -0.12693,-0.085 -0.64281,-0.46682 -1.14639,-0.84849 -0.50356,-0.38168 -1.17056,-0.82028 -1.48223,-0.9747 -0.31164,-0.1544 -0.73942,-0.40424 -0.95058,-0.55517 -0.21116,-0.15095 -0.65161,-0.37914 -0.97875,-0.50712 -0.32716,-0.12796 -1.11907,-0.48149 -1.75983,-0.78563 -0.64074,-0.30414 -1.26922,-0.55299 -1.3966,-0.55299 -0.12738,0 -0.39007,-0.11691 -0.58374,-0.2598 -0.19367,-0.14289 -0.53881,-0.30952 -0.76695,-0.37031 -0.22815,-0.0608 -0.92481,-0.33482 -1.54812,-0.60902 -0.62331,-0.27417 -1.43464,-0.57492 -1.80296,-0.6683 -0.36832,-0.0934 -0.95875,-0.30717 -1.31207,-0.47507 -0.35331,-0.16789 -0.95939,-0.38849 -1.34686,-0.49022 -0.38747,-0.10171 -0.84019,-0.28266 -1.00605,-0.40209 -0.16585,-0.11942 -0.6029,-0.29105 -0.97123,-0.3814 -0.36832,-0.0904 -0.88268,-0.25325 -1.14304,-0.36203 -0.26035,-0.1088 -0.70079,-0.24662 -0.97875,-0.3063 -0.52321,-0.11232 -0.78865,-0.20682 -1.85762,-0.66145 -0.34708,-0.14761 -0.71124,-0.26837 -0.80926,-0.26837 -0.098,0 -0.40573,-0.11428 -0.68381,-0.25395 -0.66054,-0.33178 -1.47595,-0.57027 -1.94976,-0.57027 -0.2363,0 -0.52469,-0.0988 -0.76582,-0.26247 -0.21272,-0.14436 -0.61882,-0.30649 -0.90243,-0.36026 -0.71213,-0.13506 -1.38932,-0.35075 -1.90822,-0.60782 -0.24116,-0.11947 -0.58684,-0.24689 -0.76817,-0.28316 -0.18135,-0.0363 -0.44766,-0.1275 -0.59181,-0.20272 -0.14414,-0.0752 -0.32387,-0.13707 -0.39937,-0.13741 -0.0755,0 -0.44638,-0.13569 -0.82421,-0.30074 -0.37782,-0.16505 -0.91874,-0.33419 -1.20207,-0.37586 -0.28332,-0.0416 -0.87855,-0.23116 -1.32273,-0.4211 -0.44416,-0.18992 -0.91471,-0.34531 -1.04567,-0.34531 -0.13096,0 -0.6716,-0.16865 -1.20144,-0.37476 -0.52983,-0.20613 -1.10242,-0.41075 -1.27241,-0.45472 -0.17,-0.044 -0.56408,-0.17908 -0.87573,-0.30023 -0.31166,-0.12115 -0.94638,-0.2885 -1.4105,-0.37191 -0.99134,-0.17815 -1.5856,-0.37442 -1.97671,-0.65292 -0.15555,-0.11077 -0.41906,-0.23072 -0.5856,-0.26658 -0.16654,-0.0359 -0.51143,-0.15116 -0.76641,-0.25622 -0.99662,-0.41063 -1.81998,-0.69826 -2.1908,-0.76532 -0.21331,-0.0386 -0.72329,-0.21111 -1.1333,-0.38341 -0.41,-0.17228 -1.02364,-0.3758 -1.36363,-0.45227 -0.33998,-0.0765 -0.89598,-0.2622 -1.23553,-0.41273 -0.33957,-0.15053 -0.88991,-0.3176 -1.22302,-0.37124 -0.33308,-0.0536 -0.77388,-0.18244 -0.97952,-0.28619 -0.20565,-0.10376 -0.93026,-0.36454 -1.61024,-0.57951 -0.67998,-0.21497 -1.49131,-0.5046 -1.80297,-0.64364 -0.69016,-0.30785 -1.05016,-0.43948 -5.2279,-1.91112 -0.58044,-0.20446 -1.25269,-0.45983 -1.4939,-0.56749 -0.2412,-0.10765 -0.71673,-0.29766 -1.05671,-0.42224 -0.33999,-0.1246 -0.89634,-0.35477 -1.23632,-0.51156 -0.33999,-0.15677 -0.86623,-0.36571 -1.16946,-0.4643 -0.30319,-0.0986 -0.78999,-0.32993 -1.08177,-0.51413 -0.29177,-0.18418 -0.71595,-0.40743 -0.9426,-0.49613 -0.22666,-0.0887 -0.76927,-0.3285 -1.20581,-0.53292 -0.43652,-0.20442 -0.82369,-0.37167 -0.86036,-0.37167 -0.0852,0 -1.53757,-1.14322 -1.97591,-1.55533 -0.54268,-0.51019 -0.777412,-1.1546 -0.713802,-1.95953 0.06834,-0.8641 0.251272,-1.29837 0.796222,-1.88958 0.43905,-0.47629 1.69846,-1.40902 2.36274,-1.74985 1.28628,-0.65997 2.39177,-1.19087 2.47972,-1.19087 0.0566,0 0.32148,-0.11021 0.58875,-0.24488 0.26728,-0.13468 0.64403,-0.27909 0.83723,-0.32088 0.19321,-0.0418 0.59739,-0.23344 0.89818,-0.42585 0.51425,-0.32897 1.71039,-0.75935 4.94003,-1.77751 0.74097,-0.23359 1.40879,-0.42472 1.48402,-0.42472 0.0752,0 0.53534,-0.11385 1.0224,-0.25302 0.48707,-0.13914 1.37239,-0.372 1.96736,-0.51744 2.12216,-0.51877 2.64387,-0.74779 2.25339,-0.98916 -0.0777,-0.048 -0.53541,-0.21203 -1.01707,-0.36438 -0.48164,-0.15235 -1.11533,-0.38344 -1.40816,-0.51353 -0.29284,-0.1301 -0.80283,-0.31307 -1.13329,-0.4066 -0.85823,-0.24292 -2.47839,-0.84947 -3.022,-1.13138 -0.48861,-0.25341 -1.48691,-0.7063 -1.75597,-0.79663 -0.14553,-0.0489 -0.73242,-0.42952 -2.57115,-1.66763 -0.36831,-0.24801 -0.85512,-0.61111 -1.08177,-0.80688 -0.22667,-0.19579 -0.56197,-0.43246 -0.74512,-0.52592 -0.18315,-0.0935 -0.43814,-0.31236 -0.56664,-0.48642 -0.12851,-0.17406 -0.535,-0.52849 -0.90332,-0.78765 -0.36833,-0.25914 -0.83193,-0.62238 -1.03027,-0.8072 -0.8477,-0.79 -1.45939,-1.27909 -1.59971,-1.27909 -0.0828,0 -0.28942,-0.19185 -0.45926,-0.42631 -0.16985,-0.23448 -0.77544,-0.85376 -1.34578,-1.37618 -0.57032,-0.52243 -1.102142,-1.04296 -1.181831,-1.15673 -0.07963,-0.11376 -0.497873,-0.47721 -0.929303,-0.80768 -0.43145,-0.33043 -0.848255,-0.71919 -0.92625,-0.86386 -0.176732,-0.32782 -1.838631,-2.04135 -2.284963,-2.35596 -0.181728,-0.1281 -0.428875,-0.40808 -0.549213,-0.62219 -0.120339,-0.21412 -0.376913,-0.47444 -0.570174,-0.57852 -0.193261,-0.10408 -0.446189,-0.3499 -0.562038,-0.54626 -0.337212,-0.57154 -3.030702,-3.56934 -3.631752,-4.04207 -0.157408,-0.12381 -0.384407,-0.41763 -0.504458,-0.65295 -0.288964,-0.56641 -1.344405,-1.87776 -2.622138,-3.25791 -0.290427,-0.3137 -0.559827,-0.67373 -0.598676,-0.80005 -0.03886,-0.12633 -0.202938,-0.30787 -0.364652,-0.40339 -0.161715,-0.0955 -0.345989,-0.28774 -0.409493,-0.42712 -0.09796,-0.21499 -0.755424,-1.09559 -0.939162,-1.25791 -0.03206,-0.0283 -0.201004,-0.26014 -0.37541,-0.51513 -0.174396,-0.255 -0.443461,-0.57953 -0.59793,-0.72119 -0.15446,-0.14166 -0.396467,-0.43885 -0.537795,-0.66042 -0.141318,-0.22157 -0.390762,-0.51546 -0.554314,-0.65309 -0.163552,-0.13762 -0.297367,-0.30938 -0.297367,-0.3817 0,-0.19706 -0.408928,-0.6782 -0.657443,-0.77353 -0.121468,-0.0466 -0.351588,-0.35166 -0.518815,-0.68775 -0.165304,-0.33219 -0.524606,-0.86527 -0.798466,-1.18463 -0.27386,-0.31935 -0.497921,-0.61109 -0.497921,-0.64831 0,-0.11137 -0.849384,-1.23379 -1.035533,-1.36839 -0.09485,-0.0686 -0.360967,-0.44203 -0.591384,-0.82987 -0.230416,-0.38783 -0.607683,-0.93358 -0.838377,-1.21275 -0.230703,-0.279175 -0.419456,-0.555277 -0.419456,-0.613566 0,-0.05829 -0.109485,-0.224042 -0.2433,-0.368365 -0.133814,-0.144305 -0.302487,-0.37565 -0.374835,-0.514077 -0.235777,-0.451118 -1.636383,-2.511189 -1.897351,-2.790705 -0.139902,-0.149837 -0.320768,-0.431373 -0.401951,-0.625648 -0.08116,-0.194276 -0.28635,-0.512135 -0.455942,-0.706324 -0.169601,-0.194218 -0.436924,-0.608095 -0.594054,-0.919761 -0.157139,-0.311647 -0.56892,-1.008476 -0.91509,-1.548481 -0.34617,-0.540006 -0.675763,-1.055069 -0.732434,-1.144588 -0.167533,-0.264691 -0.47071,-0.720996 -0.880327,-1.324966 -0.211379,-0.311656 -0.5245,-0.856131 -0.695843,-1.209958 -0.171353,-0.353818 -0.45108,-0.819494 -0.621626,-1.034826 -0.299312,-0.377908 -0.687477,-1.086318 -1.36681,-2.494448 -0.177694,-0.368318 -0.421948,-0.808563 -0.542794,-0.978327 -0.284189,-0.399213 -0.580314,-0.950455 -0.580314,-1.080288 0,-0.05599 -0.46362,-1.044588 -1.030267,-2.196833 -0.566646,-1.152244 -1.030268,-2.143339 -1.030268,-2.202451 0,-0.05905 -0.141879,-0.449969 -0.315295,-0.868583 -0.173405,-0.418615 -0.405447,-1.02691 -0.515636,-1.351765 -0.110189,-0.324865 -0.3118,-0.834855 -0.448018,-1.133304 -0.136217,-0.298448 -0.327327,-0.890348 -0.424694,-1.315347 -0.09736,-0.424979 -0.333402,-1.251181 -0.524519,-1.836008 -0.191128,-0.584788 -0.347506,-1.203737 -0.347506,-1.375424 0,-0.171678 -0.113856,-0.944962 -0.253018,-1.718408 -0.517854,-2.878185 -0.571254,-3.696358 -0.570314,-8.737972 8.73e-4,-4.807628 0.0838,-6.564464 0.359737,-7.623859 0.08498,-0.32629 0.15421,-0.82691 0.153831,-1.112495 -7.27e-4,-0.524759 0.244751,-2.113513 0.414455,-2.682808 0.05067,-0.169994 0.118482,-0.540891 0.150675,-0.824214 0.06372,-0.560687 0.123394,-0.803078 0.514977,-2.091609 0.142961,-0.470408 0.259924,-0.961543 0.259924,-1.09141 0,-0.129865 0.09566,-0.509958 0.212548,-0.844651 0.116899,-0.334692 0.367914,-1.095334 0.557804,-1.690313 0.189899,-0.594981 0.463176,-1.406317 0.607297,-1.80297 0.144115,-0.396651 0.264004,-0.777665 0.266404,-0.846696 0.0024,-0.06903 0.286372,-0.718099 0.631034,-1.442376 1.007676,-2.117546 1.197862,-2.532369 1.335926,-2.913778 0.07178,-0.198325 0.309436,-0.603048 0.5281,-0.899383 0.218662,-0.296334 0.445,-0.663554 0.502984,-0.816046 0.05797,-0.152493 0.257723,-0.489563 0.44388,-0.749046 0.186157,-0.259482 0.416815,-0.683807 0.512564,-0.942945 0.09672,-0.261787 0.30819,-0.570301 0.475859,-0.694267 0.16598,-0.122712 0.508117,-0.542088 0.760317,-0.931948 0.386761,-0.597878 1.349085,-1.930919 2.178226,-3.017361 0.114376,-0.149864 0.370223,-0.494176 0.568547,-0.765139 0.198324,-0.270961 0.546035,-0.710057 0.7727,-0.975765 0.226654,-0.265707 0.574375,-0.702938 0.772699,-0.971624 0.198325,-0.268686 0.557626,-0.708567 0.798456,-0.977514 0.24083,-0.26895 0.437862,-0.529962 0.437862,-0.580027 0,-0.08586 0.572184,-0.696355 1.713086,-1.827796 1.571759,-1.558706 1.965335,-1.923307 2.076169,-1.923307 0.06757,0 0.241232,-0.178904 0.385939,-0.39756 0.144696,-0.21867 0.458296,-0.540438 0.696886,-0.715059 0.23859,-0.17462 0.596073,-0.463852 0.794388,-0.642756 0.198334,-0.178904 0.685133,-0.54122 1.081782,-0.805173 0.802561,-0.534037 1.440068,-1.001435 1.75138,-1.284023 0.113371,-0.102918 0.368404,-0.287067 0.566729,-0.409222 0.198324,-0.122155 0.513617,-0.360468 0.700638,-0.529588 0.317035,-0.286723 0.469763,-0.39236 1.351162,-0.934618 0.184207,-0.113317 0.639306,-0.403075 1.011319,-0.643913 0.372022,-0.240823 0.721589,-0.437852 0.776815,-0.437852 0.05523,0 0.396266,-0.21111 0.757845,-0.469142 0.36159,-0.258001 0.807912,-0.52042 0.991842,-0.583121 0.183929,-0.0627 0.444983,-0.199313 0.580118,-0.303569 0.135145,-0.10427 0.328616,-0.189574 0.429966,-0.189574 0.10133,0 0.335766,-0.127504 0.520949,-0.283325 0.388207,-0.3266677 2.630263,-1.4681274 2.883707,-1.4681274 0.09351,0 0.226196,-0.067649 0.294812,-0.1503181 0.106823,-0.1287227 1.968043,-1.0860032 2.111485,-1.0860032 0.02776,0 0.359627,-0.141618 0.737555,-0.3147202 0.648264,-0.2969112 0.862084,-0.3833417 1.996718,-0.807112 0.254994,-0.095224 0.819304,-0.3453939 1.254024,-0.5559338 0.43473,-0.2105246 0.8381,-0.3827712 0.89638,-0.3827712 0.0583,0 0.60666,-0.1592911 1.21861,-0.3539754 0.61195,-0.1946987 1.46037,-0.4545187 1.88535,-0.57738 0.42499,-0.1228459 1.07406,-0.3133218 1.44237,-0.4232285 0.36833,-0.1099364 0.90148,-0.2679507 1.18481,-0.3511806 0.28332,-0.083241 0.88603,-0.2653502 1.33935,-0.4046978 1.01935,-0.3133525 2.39168,-0.6282679 3.14231,-0.7210709 0.31167,-0.038534 0.86801,-0.1556101 1.23632,-0.2601952 0.36833,-0.1045564 1.07603,-0.2222177 1.5727,-0.2614432 0.49664,-0.039242 0.92657,-0.1094856 0.95539,-0.1560895 0.0288,-0.046631 0.27154,-0.1133332 0.53937,-0.148245 0.26783,-0.034916 1.11285,-0.1529043 1.87783,-0.2622099 0.76498,-0.1092894 1.92403,-0.2532216 2.57567,-0.3198446 1.63314,-0.1669557 10.69608,-0.2310242 12.51775,-0.088485 0.79331,0.062069 2.1734,0.1546768 3.06691,0.2057448 1.45149,0.083001 3.06152,0.3134884 4.40252,0.6302826 0.25499,0.060231 0.83452,0.1498826 1.28784,0.1992067 0.45331,0.049339 1.00966,0.1426392 1.23632,0.2073393 0.22666,0.06472 0.69028,0.1653334 1.03027,0.2235998 0.33998,0.05825 0.87315,0.188508 1.1848,0.2894408 0.31167,0.10095 0.79846,0.2164013 1.08178,0.2565743 0.50235,0.07121 0.78004,0.1390625 2.2666,0.5538894 0.39664,0.1106878 0.90663,0.2478417 1.13328,0.3047863 0.22667,0.056939 0.79123,0.2400565 1.2546,0.4068915 0.46336,0.1668514 1.0197,0.3360171 1.23632,0.3758877 0.2166,0.039883 0.60247,0.1660397 0.85745,0.2803052 0.25501,0.1142788 0.78816,0.2989536 1.18482,0.4104089 0.39665,0.1114381 0.83709,0.2800477 0.97875,0.3746998 0.39255,0.2622549 0.73197,0.4331328 0.86175,0.4338392 0.0644,0 0.24811,0.069008 0.40835,0.1526037 0.16024,0.083575 0.65321,0.2662661 1.0955,0.4059899 0.44228,0.1397094 1.12251,0.414001 1.51163,0.6095419 1.77816,0.8935577 3.10023,1.5099229 3.23867,1.5099229 0.0832,0 0.33579,0.1258216 0.56144,0.2796131 0.37373,0.2546946 1.30025,0.7594697 2.36776,1.2899437 0.22667,0.112627 0.50546,0.290134 0.61956,0.39448 0.11412,0.104329 0.38998,0.265951 0.61304,0.35916 0.22304,0.09319 0.59332,0.320626 0.8228,0.505391 0.22949,0.184766 0.64906,0.46773 0.93239,0.628809 0.28331,0.16108 0.74694,0.461884 1.03027,0.668426 0.28331,0.206571 0.69789,0.440677 0.92125,0.520255 0.22339,0.07956 0.64486,0.376474 0.93662,0.659813 0.29176,0.28331 1.04167,0.900938 1.66648,1.372499 0.62479,0.471562 1.31382,1.039489 1.53119,1.262082 0.21733,0.222578 0.43693,0.404697 0.48795,0.404697 0.17921,0 1.28578,0.878771 1.4533,1.1541 0.0931,0.153114 0.31872,0.381328 0.5013,0.507149 0.96585,0.66566 5.88245,5.695804 6.12299,6.264394 0.0685,0.161982 0.2823,0.391981 0.47507,0.51111 0.30455,0.188237 0.52431,0.456105 0.94831,1.156042 0.22359,0.369112 0.51885,0.779426 0.79159,1.100068 0.15842,0.186269 0.35648,0.487622 0.4401,0.669673 0.0837,0.182051 0.47761,0.744471 0.87552,1.249822 0.39789,0.505351 0.72345,1.003086 0.72345,1.106076 0,0.10299 0.17614,0.303815 0.39142,0.446277 0.23701,0.156848 0.44314,0.402086 0.52256,0.621714 0.14423,0.398896 0.99732,1.967603 1.20343,2.212991 0.12637,0.15043 0.74093,1.300225 1.87225,3.502909 0.3056,0.594978 0.71091,1.5454 0.9007,2.112048 0.1898,0.566648 0.46513,1.262079 0.61185,1.5454 0.14673,0.283324 0.3628,0.932392 0.48015,1.442375 0.11735,0.509984 0.27974,1.079491 0.36084,1.265573 0.0812,0.186084 0.14749,0.460964 0.14749,0.610846 0,0.149882 0.0441,0.414892 0.0981,0.588908 0.15894,0.512589 0.38558,1.674818 0.574,2.943577 0.0968,0.651646 0.21809,1.322462 0.26956,1.490706 0.0515,0.168244 0.16231,1.095485 0.24626,2.060536 0.0839,0.965052 0.19857,2.032812 0.25475,2.372799 0.0793,0.48008 0.18592,3.250791 0.22595,5.872526 0.0163,1.061337 -0.15823,4.908421 -0.2331,5.140953 -0.0529,0.16428 -0.0971,0.488819 -0.0981,0.721188 -0.003,0.611732 -0.37002,3.047231 -0.51418,3.410256 -0.0675,0.169993 -0.18513,0.774614 -0.26137,1.343601 -0.0763,0.568977 -0.22641,1.241227 -0.33368,1.493878 -0.10728,0.252669 -0.30037,0.853461 -0.42907,1.335101 -0.1287,0.48166 -0.30505,1.01375 -0.39188,1.182423 -0.22683,0.440656 -0.95263,2.530282 -0.95263,2.742714 0,0.175526 -0.29693,0.815081 -0.42578,0.917053 -0.0359,0.02843 -0.5097,0.978834 -1.05302,2.112127 -0.54332,1.133294 -1.07963,2.222809 -1.19182,2.421124 -0.11218,0.198333 -0.38662,0.708314 -0.60984,1.133293 -0.22322,0.424989 -0.57589,1.096541 -0.78372,1.492337 -0.20781,0.395806 -0.43924,0.78989 -0.51427,0.875734 -0.075,0.08585 -0.17019,0.271993 -0.21147,0.413656 -0.0413,0.141663 -0.20195,0.396649 -0.35703,0.566642 -0.15507,0.169994 -0.3989,0.517714 -0.54184,0.772709 -0.77502,1.382508 -1.28808,2.253226 -1.47157,2.497368 -0.11332,0.150794 -0.41468,0.62671 -0.66967,1.057605 -0.255,0.430894 -0.56612,0.931571 -0.69144,1.112629 -0.91515,1.32242 -1.3691,2.024892 -1.3691,2.118699 0,0.06011 -0.14776,0.277602 -0.32836,0.483296 -0.18059,0.205695 -0.44718,0.55019 -0.59241,0.765531 -0.14521,0.215352 -0.5337,0.766173 -0.86327,1.224038 -0.32961,0.457876 -0.7106,1.041899 -0.84667,1.297832 -0.13607,0.255923 -0.51514,0.746497 -0.84235,1.090178 -0.32721,0.343669 -0.63694,0.703319 -0.6883,0.799219 -0.12721,0.23763 -1.16644,1.64105 -1.52426,2.05841 -0.15966,0.18626 -0.408,0.57088 -0.55183,0.85472 -0.14384,0.28385 -0.52623,0.78359 -0.84978,1.11054 -0.59484,0.60112 -2.10122,2.4083 -2.43288,2.91865 -0.0991,0.1525 -0.34643,0.45357 -0.54966,0.66906 -0.20323,0.21548 -0.57028,0.705 -0.81566,1.08784 -0.24539,0.38282 -0.48761,0.69604 -0.53826,0.69604 -0.0506,0 -0.48878,0.45204 -0.9736,1.00452 -0.48483,0.55247 -1.01084,1.1436 -1.16893,1.31359 -0.32326,0.34762 -1.55002,1.70264 -2.21917,2.45118 -0.80051,0.8955 -1.15043,1.27192 -2.29579,2.46975 -0.62332,0.65186 -1.31892,1.38764 -1.54578,1.63504 -0.22685,0.24742 -0.64412,0.66241 -0.92723,0.92218 -0.28313,0.25979 -0.63448,0.60751 -0.78079,0.7727 -0.22104,0.2496 -1.79651,1.76422 -3.95604,3.80327 -0.24006,0.22667 -0.77342,0.69029 -1.18526,1.03027 -0.41182,0.33999 -0.84724,0.73224 -0.96758,0.87165 -0.12036,0.13941 -0.35329,0.37123 -0.51763,0.51513 -0.16435,0.14391 -0.53949,0.47479 -0.83366,0.73526 -0.29417,0.2605 -0.72297,0.57936 -0.95289,0.70858 -0.22993,0.12921 -0.47496,0.34132 -0.54454,0.47131 -0.0696,0.13001 -0.31764,0.37597 -0.55126,0.54658 -0.23363,0.17063 -0.61022,0.47816 -0.83688,0.68341 -0.22666,0.20525 -0.71347,0.58331 -1.08178,0.84014 -0.36832,0.25681 -0.92467,0.65006 -1.23632,0.87388 -0.31166,0.22382 -0.7521,0.52745 -0.97875,0.6747 -0.22667,0.14726 -0.53954,0.41953 -0.69527,0.60503 -0.15574,0.18552 -0.52628,0.45844 -0.82343,0.60652 -0.29715,0.14806 -0.91152,0.52628 -1.36528,0.84045 -1.44643,1.0015 -2.55455,1.68242 -3.34914,2.05799 -0.42499,0.20087 -0.88862,0.47296 -1.03027,0.60465 -0.14166,0.1317 -0.44301,0.29719 -0.66968,0.36776 -0.22665,0.0705 -0.69261,0.28049 -1.03543,0.46653 -0.34283,0.18603 -0.82921,0.39368 -1.08085,0.46142 -0.25162,0.0678 -0.57383,0.20426 -0.71601,0.30333 -0.14217,0.0991 -0.6294,0.37225 -1.08272,0.60708 -0.95734,0.49593 -2.25222,1.49172 -2.29851,1.76758 -0.0471,0.28046 0.42817,0.97941 1.26327,1.85802 0.69458,0.73078 1.18979,1.50868 1.18979,1.869 0,0.19105 -0.46017,0.66953 -0.82208,0.85478 -0.59456,0.30435 -3.44953,0.77307 -5.94856,0.97661 -1.21997,0.0994 -1.76232,0.092 -3.24534,-0.0438 -2.05518,-0.18833 -2.22038,-0.21613 -2.79584,-0.4704 -0.23492,-0.1038 -0.67302,-0.22125 -0.97357,-0.26103 -0.6495,-0.0859 -1.102,-0.37155 -1.39267,-0.87902 -0.20794,-0.36301 -0.20857,-0.38156 -0.0289,-0.85198 0.10101,-0.26449 0.3665,-0.7234 0.58999,-1.01977 0.48453,-0.64255 0.58715,-0.9618 0.37681,-1.17216 -0.1343,-0.13429 -0.21783,-0.12823 -0.7088,0.0514 -0.99768,0.36496 -1.16417,0.41805 -1.99892,0.63771 -3.78816,0.9968 -4.5592,1.2202 -6.02708,1.74608 -0.59497,0.21316 -1.42949,0.4695 -1.85448,0.56965 -0.42498,0.10014 -1.04247,0.31683 -1.3722,0.48151 -0.57673,0.28806 -1.74273,0.69732 -1.99454,0.70008 -0.0668,7.3e-4 -0.3913,0.15924 -0.72119,0.35223 -0.32987,0.19301 -0.85477,0.42283 -1.16643,0.51073 -0.35879,0.1012 -0.70837,0.29362 -0.95299,0.52461 -0.32368,0.30558 -0.38636,0.43293 -0.38636,0.78495 0,0.38309 0.061,0.4794 0.69036,1.09047 0.3797,0.36865 0.8781,0.76553 1.10755,0.88196 0.22944,0.11645 0.60262,0.33587 0.82928,0.48764 0.46826,0.31353 1.30622,0.71529 2.39298,1.14731 0.40951,0.16279 1.18542,0.52869 1.72427,0.81313 0.53885,0.28443 1.07836,0.51714 1.19892,0.51714 0.12057,0 0.3878,0.0909 0.59384,0.20218 0.45749,0.24689 3.14797,1.26595 5.73201,2.17108 0.67997,0.23818 1.30802,0.49572 1.39568,0.5723 0.0877,0.0766 0.49797,0.21049 0.91186,0.29756 0.41771,0.0879 1.03881,0.3184 1.39596,0.51813 0.35388,0.19791 0.72379,0.35982 0.822,0.35982 0.0982,0 0.46467,0.10725 0.81431,0.23833 1.16032,0.43498 1.96469,0.69556 2.95384,0.95691 0.53831,0.14222 1.16421,0.34153 1.39086,0.44288 0.51789,0.23162 1.45719,0.55478 2.78173,0.95707 0.56664,0.17211 1.19253,0.39412 1.39085,0.49337 0.19833,0.0993 0.52902,0.21096 0.73487,0.24828 0.20583,0.0373 0.86351,0.25221 1.46148,0.47756 0.59797,0.22533 1.21771,0.41012 1.3772,0.41065 0.15948,7.2e-4 0.52177,0.11497 0.80509,0.25434 0.28333,0.13936 0.56934,0.25485 0.6356,0.25662 0.20234,0.005 2.43599,0.72398 2.74687,0.88367 0.16041,0.0824 0.35669,0.14982 0.43614,0.14982 0.0794,0 0.69,0.18237 1.35676,0.40526 0.66675,0.22289 1.51363,0.48562 1.88196,0.58384 0.36832,0.0982 0.9101,0.28677 1.20396,0.41896 0.29386,0.13221 0.63406,0.24036 0.756,0.24036 0.12194,0 0.74921,0.20864 1.39391,0.46363 0.64472,0.25499 1.24435,0.46363 1.33252,0.46363 0.0881,0 0.56498,0.15806 1.05957,0.35123 0.49459,0.19319 1.20061,0.42841 1.56894,0.5227 0.36831,0.0943 0.94784,0.30433 1.28783,0.46669 0.33999,0.16239 1.38313,0.5363 2.3181,0.83092 0.93497,0.29463 2.0039,0.66784 2.3754,0.82938 0.37151,0.16153 0.90467,0.33758 1.18481,0.39123 0.46547,0.0892 0.98859,0.28269 1.38508,0.51245 0.27508,0.15939 0.65583,0.30553 1.33935,0.51405 0.73186,0.22326 2.31504,0.87011 2.5069,1.02425 0.0661,0.0532 0.46799,0.22026 0.89298,0.37135 0.42498,0.15111 1.08933,0.43466 1.47633,0.63012 0.387,0.19546 0.7877,0.35539 0.89041,0.35539 0.2149,0 2.27188,1.04878 2.73308,1.39349 0.16999,0.12705 0.41212,0.2623 0.53806,0.30052 0.12596,0.0383 0.5555,0.32179 0.95454,0.63012 0.39906,0.30833 0.98502,0.70702 1.30214,0.88599 0.31712,0.17897 0.91867,0.64259 1.33678,1.03028 0.41813,0.38768 0.79798,0.70488 0.84412,0.70488 0.20987,0 2.34408,2.23805 2.85439,2.99328 0.16999,0.25157 0.46679,0.6662 0.6595,0.92138 0.19275,0.25518 0.53846,0.85804 0.76826,1.3397 0.2298,0.48165 0.44542,0.89891 0.47915,0.92725 0.2422,0.2034 0.58285,1.29402 0.72406,2.3181 0.22464,1.62905 0.23763,2.58792 0.0485,3.58587 -0.36414,1.922 -0.63684,2.72383 -1.21729,3.57923 -0.23758,0.35009 -0.58266,0.87475 -0.76683,1.16588 -0.18417,0.29112 -0.46788,0.6684 -0.63046,0.83839 -0.16256,0.17 -0.39037,0.49453 -0.50621,0.72119 -0.11584,0.22666 -0.42,0.58555 -0.6759,0.79754 -0.25591,0.21199 -0.49268,0.4718 -0.52618,0.57735 -0.0335,0.10554 -0.23379,0.27981 -0.44511,0.38726 -0.21129,0.10745 -0.59546,0.40399 -0.85371,0.65898 -0.25824,0.25499 -0.85108,0.69543 -1.31744,0.97876 -0.46635,0.28331 -0.99145,0.63103 -1.16689,0.7727 -0.41904,0.33837 -1.29141,0.83629 -2.24898,1.28368 -0.42499,0.19858 -1.07405,0.51817 -1.44239,0.71021 -0.36831,0.19205 -0.94784,0.42851 -1.28782,0.52549 -0.34,0.097 -0.77041,0.24202 -0.95649,0.32235 -0.1861,0.0803 -0.40112,0.14604 -0.47786,0.14604 -0.0768,0 -0.55037,0.12092 -1.05253,0.26869 -0.50215,0.14778 -1.2839,0.33181 -1.73722,0.40895 -1.70846,0.29077 -2.08225,0.35623 -2.88475,0.50525 -0.45331,0.0841 -2.00644,0.25727 -3.4514,0.38463 -2.47442,0.21813 -3.1783,0.23223 -12.10564,0.2425 -5.21316,0.006 -10.82296,-0.0236 -12.46623,-0.0658 z M 118.18098,95.502792 c 0.99164,-0.07408 2.17387,-0.181747 2.62719,-0.239327 0.45331,-0.05752 1.40374,-0.176062 2.11204,-0.263294 0.70832,-0.08729 1.45011,-0.224511 1.64843,-0.305023 0.19833,-0.08049 0.59241,-0.175516 0.87573,-0.211131 0.4697,-0.05905 0.87257,-0.161982 3.0908,-0.789851 0.39666,-0.11226 1.41663,-0.47517 2.26659,-0.806457 0.84998,-0.331287 1.77721,-0.678118 2.06054,-0.770728 0.28332,-0.09265 0.6774,-0.274492 0.87572,-0.404162 0.19833,-0.12967 0.53164,-0.292045 0.74069,-0.360814 0.20906,-0.06882 0.69368,-0.331019 1.07695,-0.582751 0.38327,-0.251731 0.80507,-0.457693 0.93734,-0.457693 0.14685,0 0.4095,-0.171611 0.6745,-0.440704 0.23872,-0.2424 0.74487,-0.598524 1.1248,-0.791412 0.37992,-0.192878 1.04224,-0.666814 1.47183,-1.053183 0.42957,-0.386359 0.84498,-0.702476 0.92313,-0.702476 0.0782,0 0.31989,-0.200956 0.5372,-0.446562 0.2173,-0.245606 0.59066,-0.575323 0.82967,-0.732702 0.23902,-0.157379 0.46107,-0.369571 0.49343,-0.471533 0.0324,-0.101971 0.21527,-0.304708 0.40647,-0.450544 0.43349,-0.330646 0.51396,-0.414786 1.08667,-1.136385 0.25499,-0.321285 0.66066,-0.815282 0.90148,-1.097775 0.24083,-0.282503 0.43786,-0.571294 0.43786,-0.641776 0,-0.07044 0.13909,-0.280416 0.30908,-0.466537 0.16999,-0.186121 0.30908,-0.393633 0.30908,-0.461158 0,-0.06748 0.1567,-0.343155 0.34823,-0.612526 0.19152,-0.26939 0.45162,-0.732865 0.57798,-1.029944 0.12637,-0.297089 0.29856,-0.618154 0.38264,-0.713502 0.19739,-0.223813 0.97412,-2.301656 1.37945,-3.690156 0.17366,-0.594982 0.43525,-1.754032 0.58129,-2.575678 0.24273,-1.365596 0.26613,-1.747151 0.27253,-4.443263 0.005,-2.00204 -0.0295,-2.9948 -0.10641,-3.090799 -0.0624,-0.07781 -0.14549,-0.406651 -0.18468,-0.730817 -0.0392,-0.324166 -0.2083,-1.019588 -0.3758,-1.545399 -0.16749,-0.525802 -0.33123,-1.118277 -0.36387,-1.316601 -0.0326,-0.198334 -0.10834,-0.452266 -0.16821,-0.564306 -0.0599,-0.11205 -0.25786,-0.58322 -0.43995,-1.047048 -0.18209,-0.463838 -0.47623,-1.058399 -0.65362,-1.321262 -0.45026,-0.667149 -0.63142,-1.038884 -0.63142,-1.295669 0,-0.121247 -0.14239,-0.343777 -0.31643,-0.494485 -0.17404,-0.150717 -0.48598,-0.505845 -0.69323,-0.789162 -0.20723,-0.283325 -0.61112,-0.746943 -0.89752,-1.030269 -0.28641,-0.283326 -0.8994,-0.909214 -1.36219,-1.390864 -1.09462,-1.139218 -1.8869,-1.834276 -2.70968,-2.377191 -0.3664,-0.241768 -0.85163,-0.597288 -1.07828,-0.790055 -0.22666,-0.192767 -0.85254,-0.566943 -1.39087,-0.831504 -0.53831,-0.264559 -1.07295,-0.58576 -1.18808,-0.713774 -0.11513,-0.128017 -0.27385,-0.232757 -0.3527,-0.232757 -0.0789,0 -0.7234,-0.280765 -1.43231,-0.623924 -0.7089,-0.343156 -1.75773,-0.777519 -2.33072,-0.965246 -0.57301,-0.187729 -1.18965,-0.417769 -1.37032,-0.511197 -0.46031,-0.238034 -2.69356,-0.965194 -3.68005,-1.198249 -0.45331,-0.107096 -1.12556,-0.316893 -1.49388,-0.466221 -0.36832,-0.149328 -0.90148,-0.332194 -1.18481,-0.406374 -0.28333,-0.07418 -0.65422,-0.184109 -0.82421,-0.244288 -0.17001,-0.06017 -0.79588,-0.253131 -1.39087,-0.428786 -0.59497,-0.175654 -1.24404,-0.380828 -1.44237,-0.455938 -0.19832,-0.07511 -1.00965,-0.313202 -1.80297,-0.529086 -0.79331,-0.215884 -1.74372,-0.539541 -2.11205,-0.719239 -0.36832,-0.179699 -0.88989,-0.429775 -1.15905,-0.555727 -0.26915,-0.125954 -0.48937,-0.267635 -0.48937,-0.314851 0,-0.04722 -0.16378,-0.139897 -0.36393,-0.205957 -0.44134,-0.145652 -1.79237,-1.143647 -2.3868,-1.763121 -0.23795,-0.247969 -0.55538,-0.705842 -0.70539,-1.017497 -0.15001,-0.311657 -0.34443,-0.702695 -0.43207,-0.868977 -0.21049,-0.399436 -0.36465,-1.885616 -0.28923,-2.788473 0.0369,-0.44168 0.15594,-0.920836 0.30718,-1.23632 0.13582,-0.283325 0.32259,-0.700583 0.41504,-0.927242 0.22672,-0.555842 0.87154,-1.194783 1.82251,-1.805894 0.82958,-0.53311 1.05557,-0.611442 2.71447,-0.94088 0.86948,-0.17267 1.26803,-0.194544 2.55388,-0.140175 0.83799,0.03543 1.90432,0.148198 2.36961,0.250588 1.18021,0.259708 3.64768,1.105025 4.0239,1.378527 0.17218,0.125162 0.60009,0.389833 0.95092,0.58816 1.83524,1.037458 4.41603,2.908191 4.72828,3.427374 0.0943,0.156784 0.38858,0.395785 0.65397,0.531115 0.31786,0.162084 0.55106,0.375172 0.68334,0.624388 0.11044,0.208081 0.33159,0.445961 0.49145,0.528625 0.15985,0.08267 0.70158,0.554289 1.20387,1.048062 1.38661,1.363125 2.07899,1.979549 2.22345,1.979549 0.072,0 0.19361,0.07569 0.27038,0.168194 0.27904,0.336224 1.60067,1.23593 2.20374,1.500216 1.0726,0.47004 2.90977,0.634755 3.91833,0.351306 1.49609,-0.420463 1.84424,-0.611776 2.75192,-1.512208 0.48129,-0.477456 0.91015,-0.980807 0.95303,-1.118559 0.0429,-0.13775 0.20354,-0.423834 0.35704,-0.635741 0.61707,-0.85183 0.99712,-2.669815 0.89129,-4.263362 -0.11653,-1.75445 -0.23308,-2.719141 -0.34518,-2.857177 -0.0591,-0.07281 -0.20924,-0.503272 -0.33355,-0.956588 -0.3301,-1.203657 -1.60255,-4.170033 -1.85595,-4.326641 -0.0593,-0.03662 -0.22898,-0.306698 -0.3772,-0.600179 -0.14821,-0.29348 -0.44869,-0.784547 -0.66772,-1.091262 -0.21902,-0.306715 -0.39823,-0.618111 -0.39823,-0.691991 0,-0.07388 -0.19704,-0.361929 -0.43787,-0.640108 -0.24083,-0.278178 -0.61122,-0.725955 -0.82313,-0.995061 -0.83345,-1.058493 -1.45826,-1.706749 -1.97659,-2.050805 -0.29803,-0.197826 -0.66598,-0.522375 -0.81763,-0.721222 -0.31531,-0.413354 -1.71222,-1.215808 -2.55301,-1.466534 -0.76826,-0.229101 -1.85327,-0.139153 -3.07724,0.255114 -2.3972,0.772186 -2.47714,0.789695 -3.60498,0.789695 -0.9481,0 -1.27911,-0.05343 -2.67869,-0.432306 -0.87831,-0.237773 -2.01418,-0.569176 -2.52416,-0.736477 -0.50998,-0.167286 -1.18223,-0.337128 -1.49388,-0.377451 -0.31166,-0.0403 -1.37798,-0.272368 -2.36962,-0.515671 -0.99164,-0.243302 -2.14738,-0.473651 -2.56833,-0.511884 -0.42096,-0.03824 -1.13958,-0.138896 -1.59692,-0.22372 -1.37966,-0.255882 -5.41922,-0.307131 -7.30237,-0.09265 -3.04926,0.347287 -3.82637,0.466857 -5.32574,0.81945 -0.36832,0.08661 -0.78558,0.159397 -0.92725,0.161726 -0.14165,0.0024 -0.38193,0.06914 -0.53394,0.148456 -0.15201,0.07931 -0.43019,0.17501 -0.61816,0.212673 -0.56299,0.112792 -1.32871,0.369005 -2.09323,0.700392 -0.39666,0.17193 -0.86028,0.348098 -1.030272,0.391473 -0.414537,0.105757 -1.402483,0.526943 -1.712445,0.730028 -0.137509,0.09011 -0.503894,0.2701 -0.814181,0.399979 -0.310297,0.12988 -0.78451,0.39066 -1.053795,0.579529 -0.269285,0.188854 -0.540915,0.343365 -0.603615,0.343365 -0.249329,0 -2.5549,1.532509 -3.216363,2.13791 -0.387011,0.354211 -0.809923,0.670689 -0.939794,0.703285 -0.129871,0.03259 -0.290399,0.160047 -0.356727,0.283222 -0.06633,0.123175 -0.362029,0.402019 -0.657118,0.61965 -0.767216,0.56583 -2.235452,2.00949 -2.589442,2.546091 -0.165802,0.251333 -0.410125,0.542449 -0.542953,0.646927 -0.13281,0.104476 -0.316385,0.33654 -0.407924,0.515699 -0.0916,0.179155 -0.226013,0.360746 -0.298821,0.403535 -0.178426,0.104862 -1.262189,1.659436 -1.388538,1.991751 -0.05542,0.145823 -0.377563,0.819803 -0.715818,1.497729 -0.338265,0.677925 -0.687651,1.450759 -0.776423,1.717406 -0.08872,0.266649 -0.269993,0.786167 -0.402726,1.154488 -0.454554,1.261327 -0.572222,1.701562 -0.784827,2.936263 -0.266461,1.547519 -0.369945,4.295996 -0.209474,5.563444 0.06461,0.509983 0.159005,1.284902 0.209867,1.722041 0.05082,0.437141 0.205971,1.178932 0.344705,1.648427 0.138735,0.469496 0.310661,1.108621 0.382062,1.420276 0.123545,0.539326 0.605004,1.693965 1.031016,2.47264 0.108509,0.198324 0.362413,0.685133 0.56425,1.081782 0.419542,0.824508 1.082509,1.876026 1.571366,2.492294 0.184159,0.232159 0.334838,0.469036 0.334838,0.526405 0,0.05733 0.232895,0.271611 0.517542,0.476109 0.306258,0.220022 0.588866,0.528912 0.692244,0.75661 0.09609,0.211628 0.407943,0.64369 0.69301,0.960123 0.285087,0.316432 0.658248,0.733687 0.829256,0.927235 0.52942,0.599204 1.596022,1.475722 2.044278,1.679961 0.235087,0.107111 0.589498,0.398448 0.787573,0.647404 0.198075,0.248965 0.499213,0.544245 0.669207,0.65617 0.169993,0.111935 0.656802,0.457234 1.081781,0.76735 0.424989,0.310106 0.981332,0.688674 1.236328,0.841267 0.254995,0.152594 0.678462,0.431603 0.941047,0.620021 0.262575,0.188428 0.505281,0.34259 0.539335,0.34259 0.03407,0 0.282837,0.135633 0.55284,0.301425 0.270012,0.165783 0.753337,0.399357 1.074057,0.519064 0.321888,0.120137 0.653175,0.324539 0.739478,0.456248 0.107169,0.163562 0.2964,0.259187 0.601673,0.304057 0.244933,0.03599 0.763863,0.228215 1.153173,0.427133 0.38931,0.198927 0.77242,0.361685 0.85137,0.361685 0.079,0 0.22404,0.04556 0.32243,0.101234 0.45698,0.258584 1.78364,0.826011 1.93123,0.826011 0.0907,0 0.48951,0.138103 0.8862,0.306909 0.39667,0.168798 1.1403,0.421744 1.6525,0.562106 0.5122,0.140351 1.00317,0.314853 1.09103,0.387785 0.0879,0.07293 0.42597,0.186896 0.7513,0.253253 0.32534,0.06633 0.90971,0.259102 1.29863,0.42831 0.38892,0.169209 0.98529,0.363303 1.32528,0.431325 0.33999,0.06805 0.71088,0.205713 0.82421,0.305971 0.11334,0.100268 0.40683,0.212662 0.65222,0.24975 0.24538,0.03714 0.77855,0.223382 1.18481,0.413963 0.40625,0.1906 0.84166,0.377612 0.96757,0.415599 0.12592,0.038 0.70033,0.302497 1.27648,0.587785 1.55187,0.768441 2.45135,1.562331 3.41206,3.011502 0.47585,0.717809 0.51427,0.887027 0.52888,2.330255 0.0166,1.636651 -0.0228,1.749686 -1.01015,2.902256 -0.84662,0.988281 -2.11061,1.847791 -3.06595,2.084841 -0.37966,0.09418 -0.90434,0.265963 -1.16597,0.381688 -0.6008,0.265773 -2.16382,0.421256 -4.68594,0.466164 -1.44954,0.02584 -2.00468,-8.71e-4 -2.3181,-0.111581 -0.22666,-0.08002 -0.81743,-0.172185 -1.31281,-0.204775 -0.58896,-0.03876 -1.23081,-0.167457 -1.85448,-0.371878 -0.52458,-0.171946 -1.18559,-0.385077 -1.46892,-0.47362 -0.82126,-0.25666 -2.01604,-0.754199 -2.58821,-1.0778 -0.29021,-0.164136 -0.592595,-0.298438 -0.67195,-0.298438 -0.07935,0 -0.305521,-0.132255 -0.502591,-0.293902 -0.197071,-0.161638 -0.590121,-0.395826 -0.873446,-0.520414 -0.283326,-0.124578 -0.654219,-0.354363 -0.824212,-0.510622 -0.170003,-0.156259 -0.471352,-0.405588 -0.669675,-0.554065 -0.533841,-0.399654 -1.957515,-1.78221 -1.957515,-1.900988 0,-0.05657 -0.238035,-0.303492 -0.528979,-0.54882 -0.354182,-0.29865 -0.61536,-0.635938 -0.79034,-1.020641 -0.14373,-0.316031 -0.377362,-0.760037 -0.519188,-0.986702 -0.670125,-1.070976 -1.417998,-2.146287 -1.821509,-2.619007 -0.244189,-0.286073 -0.475696,-0.664546 -0.51446,-0.841038 -0.03876,-0.176502 -0.244754,-0.490159 -0.45777,-0.697021 -0.212996,-0.206861 -0.597844,-0.701748 -0.855203,-1.099746 -0.467063,-0.722298 -2.022005,-2.315649 -2.259839,-2.315649 -0.0691,0 -0.289777,-0.154613 -0.490504,-0.343586 -0.408153,-0.384273 -1.340088,-0.686684 -2.116138,-0.686684 -0.873666,0 -2.524406,0.596992 -2.524406,0.912956 0,0.04106 -0.235402,0.350889 -0.523102,0.688426 -1.109691,1.301899 -1.226364,1.747839 -1.225225,4.68325 8.71e-4,2.355503 0.147243,3.985234 0.448649,4.996802 0.08442,0.283326 0.202449,0.875647 0.262298,1.316275 0.05982,0.440619 0.299606,1.414227 0.532798,2.163554 0.233192,0.749336 0.460909,1.501515 0.506037,1.671509 0.04518,0.169994 0.174473,0.540896 0.287432,0.824212 0.112949,0.283326 0.286312,0.770125 0.385249,1.081781 0.09895,0.311657 0.233412,0.636187 0.298812,0.721188 0.176971,0.229967 0.551118,1.125407 0.673016,1.610665 0.05886,0.234226 0.179967,0.486446 0.26918,0.560488 0.0892,0.07399 0.295165,0.398008 0.457674,0.719944 0.4397,0.871043 1.450722,2.153408 2.066244,2.620835 0.845048,0.641709 1.526285,1.011089 4.369727,2.369401 0.836578,0.399625 4.195312,1.3983 5.20285,1.546998 0.254995,0.03761 0.912458,0.180206 1.461048,0.316834 0.548581,0.136638 1.129379,0.248429 1.290663,0.248429 0.161274,0 0.384694,0.06279 0.496466,0.139472 0.111772,0.07676 0.388666,0.166289 0.615321,0.199051 0.779538,0.112691 2.885358,0.485542 3.324098,0.588576 0.24163,0.05676 0.61254,0.103885 0.82421,0.104766 0.21168,7.27e-4 1.03394,0.09757 1.82724,0.214834 3.06818,0.453549 8.61074,0.607262 12.20867,0.33858 z"
     id="path3400"
     inkscape:connector-curvature="0" />
</svg>
