<?xml version="1.0" encoding="UTF-8" standalone="no"?>
<!-- Created with Inkscape (http://www.inkscape.org/) -->

<svg
   xmlns:osb="http://www.openswatchbook.org/uri/2009/osb"
   xmlns:dc="http://purl.org/dc/elements/1.1/"
   xmlns:cc="http://creativecommons.org/ns#"
   xmlns:rdf="http://www.w3.org/1999/02/22-rdf-syntax-ns#"
   xmlns:svg="http://www.w3.org/2000/svg"
   xmlns="http://www.w3.org/2000/svg"
   xmlns:xlink="http://www.w3.org/1999/xlink"
   xmlns:sodipodi="http://sodipodi.sourceforge.net/DTD/sodipodi-0.dtd"
   xmlns:inkscape="http://www.inkscape.org/namespaces/inkscape"
   id="svg4206"
   version="1.1"
   inkscape:version="0.91 r"
   width="1408.75"
   height="1250"
   viewBox="0 0 1408.75 1250"
   sodipodi:docname="logo.svg">
  <metadata
     id="metadata4212">
    <rdf:RDF>
      <cc:Work
         rdf:about="">
        <dc:format>image/svg+xml</dc:format>
        <dc:type
           rdf:resource="http://purl.org/dc/dcmitype/StillImage" />
        <dc:title />
      </cc:Work>
    </rdf:RDF>
  </metadata>
  <defs
     id="defs4210">
    <linearGradient
       id="linearGradient4271"
       osb:paint="solid">
      <stop
         style="stop-color:#000000;stop-opacity:1;"
         offset="0"
         id="stop4273" />
    </linearGradient>
    <linearGradient
       id="linearGradient4261"
       osb:paint="gradient">
      <stop
         style="stop-color:#010101;stop-opacity:1;"
         offset="0"
         id="stop4263" />
      <stop
         style="stop-color:#010101;stop-opacity:0;"
         offset="1"
         id="stop4265" />
    </linearGradient>
    <linearGradient
       inkscape:collect="always"
       xlink:href="#linearGradient4271"
       id="linearGradient4279"
       x1="19.19798"
       y1="622.64897"
       x2="1379.7341"
       y2="622.64897"
       gradientUnits="userSpaceOnUse"
       gradientTransform="translate(0,-4.587156)" />
    <filter
       style="color-interpolation-filters:sRGB;"
       inkscape:label="Drop Shadow"
       id="filter3494">
      <feFlood
         flood-opacity="0.498039"
         flood-color="rgb(0,0,0)"
         result="flood"
         id="feFlood3496" />
      <feComposite
         in="flood"
         in2="SourceGraphic"
         operator="in"
         result="composite1"
         id="feComposite3498" />
      <feGaussianBlur
         in="composite1"
         stdDeviation="3"
         result="blur"
         id="feGaussianBlur3500" />
      <feOffset
         dx="6"
         dy="20"
         result="offset"
         id="feOffset3502" />
      <feComposite
         in="SourceGraphic"
         in2="offset"
         operator="over"
         result="composite2"
         id="feComposite3504" />
    </filter>
    <filter
       style="color-interpolation-filters:sRGB;"
       inkscape:label="Drop Shadow"
       id="filter3506">
      <feFlood
         flood-opacity="0.498039"
         flood-color="rgb(0,0,0)"
         result="flood"
         id="feFlood3508" />
      <feComposite
         in="flood"
         in2="SourceGraphic"
         operator="in"
         result="composite1"
         id="feComposite3510" />
      <feGaussianBlur
         in="composite1"
         stdDeviation="3"
         result="blur"
         id="feGaussianBlur3512" />
      <feOffset
         dx="6"
         dy="20"
         result="offset"
         id="feOffset3514" />
      <feComposite
         in="SourceGraphic"
         in2="offset"
         operator="over"
         result="composite2"
         id="feComposite3516" />
    </filter>
  </defs>
  <sodipodi:namedview
     pagecolor="#ffffff"
     bordercolor="#666666"
     borderopacity="1"
     objecttolerance="10"
     gridtolerance="10"
     guidetolerance="10"
     inkscape:pageopacity="0"
     inkscape:pageshadow="2"
     inkscape:window-width="1366"
     inkscape:window-height="716"
     id="namedview4208"
     showgrid="false"
     inkscape:zoom="0.61659711"
     inkscape:cx="777.47763"
     inkscape:cy="629.45862"
     inkscape:window-x="0"
     inkscape:window-y="25"
     inkscape:window-maximized="1"
     inkscape:current-layer="svg4206" />
  <path
     style="fill:url(#linearGradient4279);fill-opacity:1;fill-rule:evenodd"
     d="m 108.58496,1220.5923 c -35.562738,-7.0853 -63.897518,-28.9114 -79.265708,-61.0576 -8.092093,-16.9265 -10.190696,-26.6862 -10.119538,-47.0614 0.07243,-20.7273 2.271678,-30.7365 10.490442,-47.7434 C 34.315027,1055.1597 591.85216,89.205578 605.2463,67.557105 623.7815,37.599346 651.60195,19.513479 686.24378,14.901286 725.59816,9.661663 767.47045,28.320151 789.49231,60.909287 796.46232,71.224008 1365.753,1057.1592 1370.3883,1066.9437 c 7.1525,15.0976 9.3119,25.6177 9.345,45.5296 0.024,14.3091 -0.4543,19.3009 -2.6054,27.1956 -10.5902,38.8671 -39.9347,68.2469 -79.3484,79.4442 l -9.6696,2.747 -585.61222,0.1929 c -491.19234,0.1619 -586.95069,-0.073 -593.91272,-1.4607 z m 989.75994,-57.9188 c 12.0274,-3.1325 23.5792,-9.5126 31.874,-17.6039 4.1732,-4.0708 13.7407,-15.6841 21.261,-25.8071 7.5204,-10.1232 16.5336,-20.9772 20.0293,-24.1202 4.4392,-3.9912 14.2309,-9.6996 32.4697,-18.9294 35.6069,-18.019 51.0895,-28.4919 45.3668,-30.6879 -2.3583,-0.905 -14.1356,0.7526 -38.5922,5.4318 -26.7882,5.1254 -39.7469,5.5192 -76.7521,2.3329 -22.7069,-1.9552 -34.7995,-2.445 -45.9304,-1.8606 -12.2962,0.6456 -15.5491,0.4638 -17.4749,-0.9768 -2.2968,-1.7182 -2.2192,-1.9603 2.6394,-8.2507 4.756,-6.1572 24.1517,-27.5564 52.5106,-57.9346 42.3067,-45.31923 49.4428,-61.38268 45.8257,-103.15294 -4.7354,-54.68384 -19.9792,-79.50094 -67.1834,-109.37494 -17.0005,-10.75902 -29.8454,-21.10061 -58.1679,-46.83168 -34.6713,-31.49886 -56.79953,-48.83054 -82.64493,-64.73066 -38.11995,-23.45144 -70.48781,-36.88783 -121.90228,-50.60359 -36.09326,-9.62855 -46.74601,-12.87767 -48.24102,-14.71363 -1.47519,-1.81165 -4.65212,-17.26543 -6.15177,-29.92476 -1.44483,-12.19679 -0.75839,-13.29563 8.30614,-13.29563 6.71203,0 7.23815,-0.20538 7.96714,-3.10989 0.43696,-1.74116 2.07769,-3.60306 3.7278,-4.23043 1.62101,-0.6163 12.43031,-1.12054 24.02072,-1.12054 23.89753,0 25.17449,-0.60837 14.57937,-6.94561 -9.72351,-5.81587 -14.05373,-10.29975 -14.05373,-14.55247 0,-5.94084 8.04797,-9.48741 29.61301,-13.0498 16.98921,-2.80651 19.49392,-4.01567 21.16375,-10.21683 0.74949,-2.78335 2.73397,-6.33149 4.41,-7.88475 3.9709,-3.68013 17.45789,-8.10551 40.30928,-13.22644 10.13359,-2.2709 18.70619,-4.41044 19.05029,-4.75453 0.9931,-0.99315 -1.8318,-1.62768 -16.4488,-3.69456 -29.29778,-4.1428 -39.0619,-11.57402 -45.58614,-34.69446 -1.50517,-5.33377 -3.34064,-10.30179 -4.07891,-11.04005 -2.189,-2.18902 -47.59529,21.29785 -102.07666,52.80025 -9.89329,5.72051 -19.8813,10.75614 -22.19561,11.19033 -2.31431,0.43416 -7.15541,0.0823 -10.758,-0.78198 -9.32174,-2.23624 -10.92311,-0.32969 -4.90214,5.83632 4.96567,5.08532 5.78233,9.56894 2.31451,12.70727 -6.22253,5.63132 -23.5424,9.29864 -43.91519,9.29864 -11.63233,0 -14.5693,0.34753 -15.12261,1.78945 -0.72914,1.90011 5.17061,10.60688 13.73802,20.27442 2.81544,3.17697 5.535,7.26301 6.04347,9.08011 0.50848,1.8171 0.92451,15.52086 0.92451,30.45279 l 0,27.14899 -9.06521,3.38657 c -12.67644,4.73565 -25.26247,7.74774 -38.67822,9.25648 -14.31685,1.61009 -77.76461,5.38426 -144.43897,8.59192 -125.66981,6.04587 -147.84998,8.42448 -169.44377,18.17115 -11.20139,5.05591 -23.34297,13.83274 -23.34297,16.87404 0,1.90469 12.77479,7.84836 42.75252,19.89128 68.30834,27.44148 89.92647,38.83067 108.94308,57.39506 4.36462,4.26079 16.00972,17.60419 25.87803,29.65198 22.11288,26.99662 37.72496,44.45761 59.82403,66.90906 37.3992,37.99564 62.22056,55.90346 110.10195,79.43529 63.27533,31.09729 136.39755,52.31974 193.18946,56.06987 22.35881,1.4765 44.88558,0.066 104.45842,-6.5398 50.39483,-5.58823 61.93853,-6.37688 61.93853,-4.23169 0,0.67368 -7.0011,8.50119 -15.558,17.39459 -17.75533,18.4532 -25.01723,28.0629 -31.01283,41.0397 -6.7882,14.6923 -9.3359,27.5936 -9.3428,47.3103 -0.013,35.155 6.424,51.992 27.342,71.5272 17.46373,16.3092 34.91043,24.3514 64.83253,29.8852 5.7376,1.0611 28.4265,-0.377 35.6564,-2.2601 z m -27.8863,-26.1217 c -2.2407,-2.4761 -2.207,-2.6353 2.3081,-10.8914 l 4.5822,-8.3786 -4.5378,-8.4013 c -4.44,-8.2205 -4.4897,-8.4544 -2.3081,-10.8651 2.97,-3.2819 4.958,-3.0914 12.1289,1.1622 3.3239,1.9718 6.9084,3.5942 7.9656,3.6055 1.0572,0.011 4.8646,-1.6013 8.4609,-3.5836 7.6992,-4.2439 9.6684,-4.4502 12.5096,-1.3108 2.03,2.2431 1.9285,2.6781 -2.5199,10.8125 l -4.635,8.4753 4.4863,8.3062 c 4.1753,7.7302 4.3582,8.489 2.6387,10.944 -2.476,3.5349 -3.9464,3.3563 -12.9051,-1.568 l -7.6517,-4.2059 -5.9877,3.1367 c -3.2933,1.7253 -6.5045,3.6179 -7.136,4.2059 -1.9315,1.7983 -5.0083,1.198 -7.399,-1.4436 z M 737.80186,596.76243 c -9.16907,-4.51901 -12.17984,-13.2018 -13.18654,-38.02881 l -0.71705,-17.68378 3.0624,-2.00656 c 2.39626,-1.5701 5.39282,-1.93016 13.77576,-1.65533 l 10.71337,0.35123 0.93823,15.71303 c 1.39112,23.29756 0.71235,42.7223 -1.54258,44.14507 -2.74491,1.73192 -8.59541,1.35746 -13.04359,-0.83485 z"
     id="path4216"
     inkscape:connector-curvature="0" />
  <path
     style="opacity:0.93999999;fill-opacity:1;fill-rule:evenodd"
     d="m 1071.9593,1135.7819 c -1.8395,-2.2164 -1.2641,-5.0094 2.2086,-10.7197 l 4.6963,-7.7224 -4.9445,-8.7975 c -4.1604,-7.4024 -4.4073,-9.0036 -1.5571,-10.0973 1.8631,-0.7149 6.5388,0.3299 10.3907,2.3217 6.401,3.3101 7.8077,3.2997 16.3572,-0.1212 5.1446,-2.0584 9.9886,-3.1079 10.7644,-2.3321 0.7758,0.7757 -0.3952,5.4149 -2.6022,10.3092 -3.7049,8.216 -3.7325,9.4408 -0.3589,15.9645 2.0096,3.8862 3.6539,8.1492 3.6539,9.4733 0,3.5683 -6.4502,2.9212 -13.7267,-1.3771 -6.0807,-3.592 -6.8137,-3.5332 -14.4005,1.1557 -6.469,3.998 -8.4681,4.3686 -10.4812,1.9429 z"
     id="path8213"
     inkscape:connector-curvature="0" />
  <path
     style="opacity:0.93999999;fill-opacity:1;fill-rule:evenodd"
     d=""
     id="path8215"
     inkscape:connector-curvature="0" />
  <path
     style="opacity:0.93999999;fill-opacity:1;fill-rule:evenodd"
     d=""
     id="path8217"
     inkscape:connector-curvature="0" />
  <path
     style="opacity:0.93999999;fill-opacity:1;fill-rule:evenodd"
     d="m 1071.9858,1135.8138 c -1.8717,-2.2552 -1.3635,-4.9214 1.9888,-10.4337 4.4844,-7.3741 4.4838,-7.442 -0.1639,-16.5522 -5.5647,-10.9077 -2.8771,-13.3286 9.1723,-8.2622 6.5749,2.7645 8.8151,2.7756 15.2774,0.075 4.165,-1.7403 8.638,-3.1641 9.94,-3.1641 3.554,0 2.8519,6.3025 -1.4301,12.8376 -3.5341,5.3936 -3.5341,6.3475 0,13.7586 2.0886,4.3797 3.7974,8.9602 3.7974,10.1788 0,3.2504 -6.1655,2.7035 -13.7523,-1.2198 -6.097,-3.1529 -7.2887,-3.0552 -14.4797,1.1876 -6.4008,3.7766 -8.2962,4.0685 -10.3499,1.5939 z"
     id="path8219"
     inkscape:connector-curvature="0" />
  <path
     style="opacity:0.93999999;fill-opacity:1;fill-rule:evenodd"
     d="m 111.14155,1219.0807 c -32.521261,-3.7196 -65.332493,-28.5269 -81.218214,-61.4059 -6.709121,-13.8859 -7.5702,-18.0048 -8.395259,-40.1574 -0.705722,-18.9484 -0.01629,-27.4453 2.966935,-36.566 C 28.03213,1070.1373 54.531748,1023.0007 151.88335,854.3578 170.45247,822.19037 226.42779,725.17202 276.27296,638.76147 603.4247,71.617885 607.98571,63.826833 621.36583,49.279362 646.94151,21.472265 688.05376,9.1344032 724.19128,18.421245 c 20.02544,5.146258 37.11978,14.46435 50.35847,27.450315 13.19481,12.94294 3.36956,-3.688163 250.56355,424.12585 315.8018,546.55199 346.6316,600.74539 350.6264,616.33869 4.8475,18.9216 3.3275,46.5872 -3.5407,64.4448 -10.1876,26.4883 -36.1426,52.3863 -64.2224,64.0815 l -12.7759,5.3211 -584.8624,0.2683 c -321.67431,0.1476 -591.31285,-0.4694 -599.19675,-1.3711 z m 1000.11765,-60.3204 c 12.0973,-5.5383 22.1282,-15.4695 50.3154,-49.8153 10.5258,-12.8256 15.9081,-16.8885 38.5269,-29.0826 35.8428,-19.3233 50.3744,-28.5965 50.3744,-32.1456 0,-4.0503 -5.1783,-3.7973 -37.5892,1.836 -24.4867,4.256 -32.1256,4.61 -64.475,2.9872 -20.1835,-1.0124 -45.4058,-1.9597 -56.0495,-2.105 -10.7756,-0.1471 -19.6953,-1.2932 -20.1261,-2.5858 -0.4257,-1.2768 16.9702,-21.8542 38.6573,-45.7275 59.4863,-65.48278 63.1618,-72.56987 60.9347,-117.49484 -2.7912,-56.30186 -16.5883,-79.70805 -67.7612,-114.95395 -14.7159,-10.13569 -40.6896,-30.91534 -57.7194,-46.17704 -75.08787,-67.29176 -114.77319,-89.46445 -206.90062,-115.59793 -23.91654,-6.78432 -44.07337,-12.9239 -44.79298,-13.64351 -1.41447,-1.41448 -7.25826,-29.9256 -7.39642,-36.08633 -0.0557,-2.48553 2.55649,-4.25393 7.71275,-5.22124 4.28837,-0.80452 9.05924,-2.9836 10.60193,-4.84241 2.06951,-2.49362 7.99277,-3.38888 22.59284,-3.41479 25.66667,-0.0457 29.08936,-2.12615 16.83661,-10.23464 -10.47693,-6.9333 -13.26267,-11.76942 -9.43569,-16.38064 2.61619,-3.15234 8.49319,-4.95617 32.06814,-9.84266 11.2075,-2.32305 13.26427,-3.6261 16.52872,-10.47172 3.30763,-6.93617 5.82376,-8.48046 22.29513,-13.68376 10.2117,-3.22587 19.80358,-5.87099 21.3153,-5.87803 6.41507,-0.0298 20.33537,-5.08938 18.50521,-6.72599 -1.09734,-0.9813 -9.04165,-2.90305 -17.65404,-4.27055 -27.47229,-4.36213 -36.26415,-11.99279 -46.27158,-40.16025 l -2.28973,-6.44479 -23.3375,11.45059 c -12.83564,6.29785 -35.02601,18.08354 -49.31192,26.19046 -41.6023,23.60826 -48.89087,26.85406 -60.30186,26.85406 -10.97509,0 -13.69287,3.58402 -6.95697,9.17432 9.96993,8.27431 -3.19927,16.09727 -29.5953,17.58066 -27.49911,1.54537 -29.5342,2.16117 -26.41342,7.99239 1.41821,2.64995 6.11539,9.4516 10.43819,15.11477 l 7.85961,10.29665 -0.63996,28.76491 -0.63995,28.76493 -12.61468,4.29105 c -19.5917,6.66438 -36.10897,8.37562 -128.44037,13.30665 -173.31174,9.25585 -194.04199,11.1512 -214.23121,19.58677 -12.7081,5.30979 -26.59447,14.97803 -26.59447,18.51612 0,3.98847 1.50117,4.73143 48.38488,23.94624 62.82649,25.74881 82.78645,36.81069 103.09369,57.13484 9.51737,9.52528 27.72209,29.70402 40.45496,44.84163 32.65665,38.8242 77.83768,82.1039 103.85899,99.48833 55.62147,37.15977 141.64282,70.32887 211.97667,81.73637 30.45638,4.93975 71.8481,4.18817 136.982,-2.48729 31.63867,-3.24259 58.11225,-5.30819 58.83025,-4.59021 0.718,0.71798 -5.3792,8.27356 -13.5494,16.79012 -30.90308,32.21351 -38.97959,50.65011 -38.89461,88.78621 0.0642,28.8453 3.14179,41.6503 13.69725,56.9921 12.82915,18.6466 33.83566,32.7418 61.08276,40.9863 19.2472,5.8238 49.3616,4.2988 66.0585,-3.3453 z"
     id="path8221"
     inkscape:connector-curvature="0" />
  <path
     style="opacity:0.93999999;fill-opacity:1;fill-rule:evenodd"
     d="m 111.14155,1219.0807 c -32.521261,-3.7196 -65.332493,-28.5269 -81.218214,-61.4059 -6.709121,-13.8859 -7.5702,-18.0048 -8.395259,-40.1574 -0.701987,-18.8481 -0.01135,-27.4605 2.921057,-36.4257 2.112227,-6.4578 20.445894,-40.7627 40.741483,-76.2331 C 146.68254,862.43599 565.3619,137.54925 599.2106,80.275229 615.628,52.495959 630.33612,37.366406 650.7158,27.294227 692.61436,6.5868328 741.97067,13.840039 774.13624,45.431606 c 14.25644,14.002038 24.04287,30.699644 398.83056,680.485824 191.0671,331.26167 198.7564,344.90717 202.5397,359.43227 13.7243,52.6912 -15.2813,108.2582 -67.6911,129.6781 l -12.6147,5.1557 -584.8624,0.2683 c -321.67431,0.1476 -591.31285,-0.4694 -599.19675,-1.3711 z m 997.69425,-59.2018 c 13.7586,-6.1141 22.4143,-14.0346 42.8764,-39.2349 9.834,-12.1111 19.823,-23.7174 22.198,-25.7918 2.3749,-2.0743 17.5612,-10.8473 33.7473,-19.4954 30.6974,-16.4013 45.2116,-26.6218 42.1841,-29.7047 -0.9797,-0.9976 -16.8144,0.5986 -35.1883,3.5469 -29.8672,4.7927 -37.091,5.1608 -68.173,3.4745 -19.1212,-1.0374 -43.4619,-1.9876 -54.0905,-2.1115 -11.0356,-0.1287 -19.6629,-1.2402 -20.1132,-2.5913 -0.7968,-2.3902 4.8965,-9.0568 51.2972,-60.06641 41.8015,-45.95356 48.9205,-59.57025 48.9205,-93.57163 0,-53.71594 -18.0549,-90.41397 -57.4452,-116.76199 -23.2847,-15.57503 -43.7924,-31.66459 -68.7016,-53.90069 -77.95282,-69.58737 -122.15812,-93.37904 -223.87842,-120.49333 -12.7547,-3.39984 -24.50704,-6.9953 -26.11633,-7.98991 -2.60819,-1.61195 -8.87715,-27.17759 -9.09527,-37.09165 -0.055,-2.49823 2.50961,-4.38284 7.36981,-5.41582 4.09977,-0.87136 9.03553,-2.97413 10.96838,-4.6728 2.23337,-1.96282 10.94357,-3.33273 23.89747,-3.75851 22.94532,-0.7542 26.30718,-3.30615 14.20704,-10.78443 -16.6186,-10.27087 -11.71351,-18.43959 13.91363,-23.17103 19.21183,-3.547 22.66319,-5.27596 26.90452,-13.4778 3.94892,-7.63635 8.57644,-9.71656 39.05571,-17.55663 12.57782,-3.23536 23.23474,-6.24841 23.68202,-6.69571 1.13144,-1.13144 -5.29349,-2.86704 -20.85069,-5.63247 -14.35427,-2.55161 -27.35661,-7.88845 -31.56078,-12.95418 -1.44723,-1.74378 -5.04879,-9.13151 -8.00347,-16.41715 -2.95465,-7.28565 -6.88458,-13.56223 -8.73314,-13.94796 -3.90436,-0.81473 -35.33881,14.61752 -71.4394,35.07201 -40.89002,23.16819 -48.19886,26.40913 -59.55679,26.40913 -10.97509,0 -13.69287,3.58402 -6.95697,9.17432 10.42488,8.6519 -3.24239,16.11009 -33.10124,18.06325 -26.27629,1.71881 -27.43266,3.4081 -13.93638,20.35874 l 9.33298,11.72172 -0.64309,29.30516 -0.6431,29.30518 -16.52282,5.17124 c -19.67968,6.15927 -43.26108,8.23847 -164.66984,14.51911 -136.26989,7.04943 -157.21087,9.35961 -178.89908,19.73592 -15.30376,7.32179 -22.7709,13.38385 -21.27803,17.27422 0.67484,1.7586 19.67195,10.81507 42.2158,20.12548 52.72005,21.77293 87.08289,39.2202 100.49218,51.02353 5.86789,5.16511 25.44115,26.54807 43.49613,47.51764 36.12839,41.96062 74.54683,80.21908 97.93821,97.53039 52.8155,39.08734 142.03619,75.26926 218.46729,88.59573 25.45346,4.43805 34.72803,4.97404 67.66055,3.91028 20.99012,-0.67801 59.13817,-3.49565 84.77346,-6.26138 25.63526,-2.76576 47.18076,-4.4575 47.87886,-3.7594 0.6981,0.69807 -6.6616,9.80596 -16.3548,20.23977 -11.64603,12.53585 -20.49555,24.78306 -26.08984,36.10696 l -8.46587,17.1364 0.0259,33.3689 c 0.0239,30.6713 0.47601,34.2806 5.59294,44.646 11.52318,23.3424 40.90935,45.4302 70.37665,52.8979 17.5222,4.4404 47.7221,2.9957 61.0341,-2.9199 l 0,0 z"
     id="path8223"
     inkscape:connector-curvature="0" />
  <path
     style="opacity:0.93999999;fill-opacity:1;fill-rule:evenodd"
     d="m 111.14155,1219.0807 c -32.431284,-3.7093 -64.989573,-28.2609 -81.233204,-61.2564 -6.909855,-14.0359 -7.681162,-17.7062 -8.451702,-40.2184 -0.647339,-18.9127 0.07355,-27.5901 3.04742,-36.6822 C 28.542383,1068.5772 74.064135,988.49635 270.63479,647.93578 609.71181,60.481571 607.40787,64.414255 621.36583,49.260525 c 18.77279,-20.381069 49.97789,-34.352268 76.72678,-34.352268 27.45565,0 57.07517,11.890011 76.03753,30.523349 13.02449,12.798513 25.62105,33.97841 209.64858,352.504174 363.09888,628.47312 387.55328,671.38702 391.73388,687.43742 13.5131,51.8802 -12.8946,104.2905 -64.8063,128.6186 l -13.212,6.1917 -586.00921,0.2683 c -322.30504,0.1476 -592.45964,-0.4694 -600.34354,-1.3711 z m 995.19325,-58.5836 c 13.8283,-4.7525 23.023,-12.9699 47.4179,-42.3778 l 19.9773,-24.0826 34.9346,-19.4954 c 34.7379,-19.3857 44.1093,-25.9895 41.1214,-28.9774 -0.86,-0.86 -16.0173,0.7158 -33.6829,3.5018 -29.3769,4.6329 -36.8274,4.9273 -87.2596,3.4484 -30.3271,-0.8894 -55.6857,-2.4997 -56.3525,-3.5785 -1.6253,-2.6299 2.6329,-7.818 43.3368,-52.80122 35.4601,-39.18805 50.15,-59.6869 54.6942,-76.3222 3.4956,-12.79647 0.9533,-56.0728 -4.4007,-74.91044 -8.4857,-29.85688 -23.3988,-48.13502 -59.3068,-72.68931 -11.5253,-7.88108 -31.1353,-23.12367 -43.578,-33.87238 -53.574,-46.28058 -62.7357,-53.74438 -83.40278,-67.94666 -42.90466,-29.48369 -71.86627,-42.30584 -140.66572,-62.27678 -23.75376,-6.89519 -43.73818,-13.08627 -44.40983,-13.75792 -1.61601,-1.61598 -7.40175,-28.75069 -7.50443,-35.19513 -0.0633,-3.97695 1.61598,-5.37489 7.86523,-6.54725 4.3702,-0.81987 9.14108,-2.93085 10.60195,-4.6911 1.8127,-2.18418 7.84713,-3.21039 19.00371,-3.23175 17.1895,-0.033 26.66872,-1.63903 26.66872,-4.51857 0,-0.9467 -4.12844,-4.45335 -9.17431,-7.79255 -5.04587,-3.3392 -9.17432,-7.58101 -9.17432,-9.42624 0,-5.20204 8.91244,-9.71816 25.22936,-12.78427 18.62718,-3.50022 22.04977,-5.24589 26.26429,-13.39589 3.8247,-7.39617 12.54397,-11.39424 37.9559,-17.40408 9.46101,-2.23753 18.75,-4.8928 20.6422,-5.90064 4.2533,-2.26546 2.64174,-2.88113 -17.09379,-6.53035 -22.27385,-4.11855 -28.89851,-8.64832 -37.32137,-25.51945 -4.06826,-8.14876 -7.75124,-15.80179 -8.18443,-17.00676 -1.2105,-3.36725 -18.04018,3.89981 -50.93252,21.9927 -68.26817,37.55188 -70.47922,38.59383 -81.99542,38.64037 -11.46298,0.0463 -14.29128,3.54399 -7.45412,9.21833 9.32887,7.74227 -2.37659,15.6235 -25.86741,17.41637 -23.23252,1.77317 -30.32525,3.17376 -30.32525,5.9883 0,1.40505 4.12844,8.02273 9.17431,14.70592 l 9.17431,12.15131 0,28.63277 c 0,17.25698 -0.94298,29.21555 -2.37346,30.09966 -1.30542,0.80679 -9.23893,3.43023 -17.63003,5.82986 -18.39211,5.25968 -45.67357,7.56934 -161.18917,13.64633 -139.83812,7.35656 -159.39853,9.59739 -181.76273,20.82257 -9.72743,4.88246 -20.07213,13.03546 -20.07213,15.81952 0,2.01977 11.27169,7.27193 52.75229,24.58048 19.55275,8.15874 45.87156,20.11037 58.48624,26.55915 26.41624,13.50434 40.06621,26.07248 85.40965,78.64071 46.93189,54.40971 83.31716,86.68129 123.77634,109.78223 55.09841,31.45949 137.05243,59.63378 197.39396,67.86041 26.59204,3.62541 72.22395,2.06275 136.58427,-4.67736 26.26326,-2.75041 48.39319,-4.35897 49.17759,-3.57459 0.7843,0.78441 -3.7653,6.81922 -10.1105,13.41071 -17.83438,18.52693 -27.63037,31.71439 -34.57732,46.54849 -6.01275,12.8392 -6.36959,15.4001 -6.36959,45.7113 0,39.7189 3.24326,48.6691 25.31727,69.8656 29.59604,28.4196 72.89804,38.8916 109.21134,26.4113 z"
     id="path8225"
     inkscape:connector-curvature="0" />
  <path
     style="opacity:0.93999999;fill-opacity:1;fill-rule:evenodd;fill:#ffffff"
     d="m 111.14155,1219.0807 c -32.431284,-3.7093 -64.989573,-28.2609 -81.233204,-61.2564 -6.909855,-14.0359 -7.681162,-17.7062 -8.451702,-40.2184 -0.64858,-18.9489 0.0728,-27.597 3.06848,-36.7857 4.396078,-13.4842 34.067635,-65.619 272.475266,-478.75598 C 608.12335,62.918702 607.83048,63.417289 622.51674,47.878539 c 18.22507,-19.282961 49.59973,-32.970282 75.57587,-32.970282 27.46473,0 57.08627,11.893039 76.02335,30.523349 14.93186,14.689972 14.05409,13.197933 337.59124,573.834454 225.0855,390.03584 259.4851,450.64334 263.5234,464.29244 14.9083,50.3895 -11.5593,104.9384 -62.8281,129.4867 l -14.9082,7.1383 -586.00921,0.2683 c -322.30504,0.1476 -592.45964,-0.4694 -600.34354,-1.3711 z m 993.02705,-57.8346 c 13.8191,-4.7066 26.0967,-15.0823 44.7422,-37.8112 24.2457,-29.5558 24.4488,-29.723 59.3447,-48.8696 31.8908,-17.4977 44.386,-26.1079 41.7491,-28.7683 -0.89,-0.8979 -16.3716,0.6544 -34.4037,3.4496 -30.4153,4.7148 -36.7517,4.9423 -87.6457,3.1471 -36.654,-1.2928 -55.1407,-2.7819 -55.7054,-4.4868 -0.4648,-1.4036 8.2246,-12.6309 19.3097,-24.9496 73.8724,-82.09264 78.8178,-89.54457 80.4501,-121.22673 1.2912,-25.05974 -4.5559,-57.9802 -13.539,-76.2274 -8.8881,-18.05445 -24.2158,-33.66725 -53.2898,-54.28122 -12.681,-8.99101 -33.8147,-25.70099 -46.9637,-37.13326 -89.63114,-77.92885 -125.25267,-98.94105 -208.28426,-122.86133 -60.82206,-17.52202 -55.4936,-15.25055 -57.99314,-24.72176 -1.23727,-4.68817 -2.93956,-13.87255 -3.78291,-20.40975 l -1.53333,-11.88578 8.22065,-1.5422 c 4.52137,-0.84821 9.41594,-2.98241 10.87681,-4.74266 1.8127,-2.18418 7.84713,-3.21039 19.00371,-3.23175 16.64954,-0.0319 26.7078,-1.63775 26.61975,-4.24995 -0.0268,-0.79897 -4.15537,-4.35791 -9.17431,-7.90876 -15.57457,-11.01888 -10.81149,-16.81087 19.16628,-23.30663 16.14276,-3.49791 18.42782,-4.66901 22.46661,-11.51427 5.0391,-8.54066 12.79576,-12.21777 38.69131,-18.34199 9.46101,-2.23753 18.75,-4.8928 20.6422,-5.90064 4.2533,-2.26546 2.64174,-2.88113 -17.09379,-6.53035 -23.03128,-4.25862 -28.8508,-8.43456 -37.92773,-27.21603 -4.40174,-9.10784 -9.07536,-16.5597 -10.3858,-16.5597 -4.16413,0 -33.10117,14.67376 -74.50094,37.77883 -29.49982,16.46376 -42.87305,22.68014 -50.45871,23.45509 -16.4095,1.67642 -17.1251,2.15835 -12.86315,8.66287 2.02886,3.09644 3.68883,6.67181 3.68883,7.94527 0,4.08603 -12.97403,9.18943 -26.75199,10.52298 -27.33019,2.6453 -32.88046,3.72399 -32.85665,6.38558 0.0138,1.49954 4.13087,7.88699 9.14993,14.19433 l 9.12555,11.46789 0.0243,29.16243 c 0.0277,33.29684 1.39548,31.05278 -22.73605,37.3059 -17.78574,4.60874 -42.08966,6.5763 -156.13865,12.64048 -140.84193,7.48881 -162.49759,10.00624 -185.22691,21.53245 -5.98071,3.03287 -12.8972,7.7531 -15.36997,10.48938 -5.62798,6.22776 -6.69312,5.5178 33.16569,22.10647 53.94176,22.44977 94.23231,43.075 107.5691,55.06592 6.73502,6.05537 24.70557,25.51071 39.93457,43.23408 34.05802,39.63654 77.73087,83.44704 98.79713,99.10863 46.16351,34.31995 117.82511,66.07924 187.44351,83.07201 56.5405,13.80067 86.42339,14.57381 182.76876,4.7286 26.86888,-2.74564 49.44729,-4.39736 50.17409,-3.67045 0.7269,0.72688 -5.1163,8.33041 -12.985,16.89672 -16.86638,18.36176 -26.02927,31.2002 -32.86003,46.0415 -4.35748,9.4674 -4.97906,14.8267 -4.97906,42.9281 0,28.5962 0.57468,33.365 5.25158,43.578 11.84275,25.861 43.72181,49.0771 77.27981,56.2796 10.9934,2.3594 39.2739,0.7512 49.7936,-2.8317 l 10e-5,0 z"
     id="path8227"
     inkscape:connector-curvature="0" />
  <path
     style="opacity:0.93999999;fill:#ffffff;fill-opacity:1;fill-rule:evenodd;filter:url(#filter3494)"
     d="m 102.66433,1216.5506 c -26.780179,-6.3133 -55.754052,-29.8223 -70.507463,-57.2087 -7.734687,-14.3578 -8.02258,-15.7902 -8.746228,-43.5162 l -0.748278,-28.6697 8.991192,-18.3487 C 52.335399,1026.6012 579.71837,112.29045 609.15018,67.615773 622.4044,47.497133 634.15823,37.21947 655.9805,26.666898 c 16.71439,-8.082554 17.94927,-8.318274 43.57799,-8.318274 25.61073,0 26.8839,0.24248 43.87364,8.35597 32.68461,15.608622 33.0289,16.081578 118.30211,162.515586 69.18975,118.81496 336.23746,581.55776 421.91796,731.1036 85.1103,148.55042 91.6645,161.18292 93.7546,180.70032 4.5896,42.8571 -19.4092,85.4172 -61.2485,108.6193 l -16.8292,9.3327 -594.03667,-0.2 c -334.76126,-0.1129 -597.78653,-1.0842 -602.6281,-2.2255 z m 985.46557,-52.2522 c 0.675,-1.0923 3.6848,-1.5162 6.6883,-0.942 10.1973,1.9493 27.508,-9.4706 46.5965,-30.7399 31.6445,-35.2595 37.6636,-40.3167 69.6117,-58.486 17.0298,-9.6851 33.5309,-20.0055 36.6691,-22.9341 l 5.7057,-5.3248 -8.9126,-0.7322 c -4.902,-0.4026 -9.5339,0.1134 -10.293,1.1468 -1.5725,2.1407 -3.5534,2.2674 -73.2781,4.6872 -28.1907,0.9784 -51.7321,1.0048 -52.3143,0.059 -0.5822,-0.9461 -7.4483,-1.736 -15.2581,-1.7553 -7.8097,-0.018 -15.4775,-0.8468 -17.0396,-1.839 -1.9903,-1.264 2.8141,-8.2301 16.055,-23.2788 60.7058,-68.99393 73.1451,-85.26111 77.4644,-101.30191 2.8134,-10.44828 3.2635,-54.85626 0.5761,-56.84312 -0.9932,-0.73427 -2.0844,-5.73773 -2.4249,-11.11876 -0.8723,-13.78665 -8.198,-31.8609 -18.2866,-45.11753 -9.2171,-12.11149 -21.498,-22.80181 -62.8078,-54.67321 -14.3466,-11.06871 -39.5021,-31.51862 -55.9012,-45.44426 -36.21578,-30.75344 -77.74321,-59.14317 -105.50458,-72.12693 -22.99762,-10.75583 -55.53883,-22.08431 -95.18349,-33.13601 -14.50688,-4.04406 -28.60482,-8.76615 -31.32876,-10.49353 -3.22626,-2.04592 -5.82459,-7.20649 -7.45413,-14.80482 -3.74803,-17.47649 -3.28498,-25.19709 1.51225,-25.21397 2.20757,-0.007 6.97888,-1.56052 10.60289,-3.45055 3.62401,-1.89002 13.94511,-4.01328 22.93578,-4.71837 8.99066,-0.70509 18.92693,-1.82956 22.0806,-2.49883 5.66711,-1.20268 5.62034,-1.31823 -4.01377,-9.91399 -5.36123,-4.78342 -9.7477,-9.89968 -9.7477,-11.36949 0,-3.29588 12.19665,-8.53998 27.49064,-11.81996 6.32509,-1.35649 11.50018,-3.47385 11.50018,-4.70523 0,-1.2314 0.89326,-1.68681 1.98503,-1.01206 1.09176,0.67475 6.09529,-2.80225 11.11894,-7.72665 8.95867,-8.7817 11.35608,-9.78457 45.19952,-18.90741 6.20681,-1.67312 11.65099,-4.13959 12.09814,-5.48106 0.46404,-1.39211 -7.06245,-4.13137 -17.53484,-6.38176 -21.92709,-4.71191 -28.65025,-9.70445 -38.85745,-28.85512 -4.06867,-7.63364 -8.7592,-13.87933 -10.42337,-13.87933 -5.585,0 -20.51789,7.22592 -66.65936,32.25596 -26.79447,14.535 -50.64083,25.90401 -57.33945,27.33718 -18.14794,3.88273 -17.83711,3.62635 -13.8181,11.39826 3.37856,6.53341 3.29693,7.01559 -1.74702,10.32052 -2.91016,1.90679 -13.49988,4.55136 -23.53275,5.87682 -35.99603,4.75548 -35.89442,4.64945 -21.68195,22.62956 l 9.17431,11.60638 0,24.00073 c 0,30.02071 -1.67754,34.80697 -13.29614,37.93553 -24.80331,6.67883 -43.13675,8.29491 -183.95156,16.21523 -96.61431,5.43419 -116.97248,7.00208 -116.97248,9.00864 0,0.82679 -3.61238,1.08154 -8.02752,0.56608 -4.41514,-0.51543 -8.03337,-0.0502 -8.04051,1.03395 -0.007,1.08413 -4.17761,2.1286 -9.2677,2.32105 -15.41934,0.58305 -45.14707,17.55945 -42.84457,24.46695 0.4803,1.4409 9.0506,6.09266 19.04514,10.33727 46.72417,19.84342 81.74796,36.14351 99.59388,46.35106 21.21456,12.13436 31.35825,21.7986 82.47066,78.5725 56.85289,63.1502 89.0847,89.65734 139.91922,115.06816 30.47652,15.23438 65.9378,29.43379 68.9139,27.59445 1.2508,-0.77305 2.2742,-0.3489 2.2742,0.94255 0,5.25768 90.86924,29.06131 103.73291,27.1733 3.49736,-0.5133 6.35883,-0.0798 6.35883,0.96307 0,1.04301 17.02982,1.89636 37.84404,1.89636 21.09438,0 37.84403,-0.92009 37.84403,-2.07886 0,-1.14337 2.05675,-1.54101 4.57055,-0.88362 2.51381,0.65736 24.03978,-0.57562 47.83546,-2.73998 23.79571,-2.16435 44.9105,-3.57291 46.9217,-3.13013 2.6887,0.59192 -0.3058,5.35919 -11.3106,18.0069 -30.68337,35.26379 -36.59144,51.47999 -34.6785,95.18349 1.2035,27.4957 3.79213,36.0155 15.33133,50.4587 8.98561,11.247 25.19817,24.4575 27.93757,22.7644 1.109,-0.6854 2.0163,-0.1796 2.0163,1.1239 0,3.0795 11.6624,9.1073 27.523,14.2255 13.1508,4.2437 42.4062,5.7753 44.5347,2.3314 z"
     id="path8229"
     inkscape:connector-curvature="0" />
  <path
     style="opacity:0.93999999;fill:#ffffff;fill-opacity:1;fill-rule:evenodd"
     d="m 734.91141,592.155 c -5.51246,-4.74162 -6.45163,-7.76046 -8.61118,-27.6793 -2.76783,-25.52945 -2.25028,-26.53733 13.65751,-26.59654 l 9.43596,-0.0351 1.45854,10.64122 c 1.85102,13.50466 1.89067,40.60978 0.0663,45.36385 -1.99495,5.19877 -8.83538,4.47482 -16.00719,-1.69411 z"
     id="path8231"
     inkscape:connector-curvature="0" />
  <path
     style="opacity:0.93999999;fill:#ffffff;fill-opacity:1;fill-rule:evenodd;filter:url(#filter3506)"
     d="m 1071.9288,1135.2722 c -0.7688,-2.0034 0.4406,-7.0562 2.6875,-11.2285 3.8151,-7.0842 3.8345,-7.9441 0.2936,-12.9995 -7.8567,-11.217 -3.6191,-16.5252 8.7082,-10.9085 4.4521,2.0285 8.0224,2.0033 15.0634,-0.1062 12.4518,-3.7306 14.6112,-1.7803 9.3604,8.4544 -4.2622,8.3079 -4.2608,8.6084 0.081,17.1186 3.9993,7.8393 4.0658,8.7979 0.7006,10.0892 -2.0452,0.7848 -7.016,-0.1455 -11.0462,-2.0673 -6.7414,-3.2148 -8.0125,-3.143 -15.8891,0.898 -7.6594,3.9295 -8.7088,4.0085 -9.9593,0.7498 z"
     id="path8233"
     inkscape:connector-curvature="0" />
</svg>
