<?xml version="1.0" encoding="UTF-8" standalone="no"?>
<!-- Created with Inkscape (http://www.inkscape.org/) -->

<svg
   xmlns:dc="http://purl.org/dc/elements/1.1/"
   xmlns:cc="http://creativecommons.org/ns#"
   xmlns:rdf="http://www.w3.org/1999/02/22-rdf-syntax-ns#"
   xmlns:svg="http://www.w3.org/2000/svg"
   xmlns="http://www.w3.org/2000/svg"
   xmlns:sodipodi="http://sodipodi.sourceforge.net/DTD/sodipodi-0.dtd"
   xmlns:inkscape="http://www.inkscape.org/namespaces/inkscape"
   id="svg3390"
   version="1.1"
   inkscape:version="0.91 r"
   width="1810"
   height="2560"
   viewBox="0 0 1810 2560"
   sodipodi:docname="logo.svg">
  <metadata
     id="metadata3396">
    <rdf:RDF>
      <cc:Work
         rdf:about="">
        <dc:format>image/svg+xml</dc:format>
        <dc:type
           rdf:resource="http://purl.org/dc/dcmitype/StillImage" />
        <dc:title />
      </cc:Work>
    </rdf:RDF>
  </metadata>
  <defs
     id="defs3394" />
  <sodipodi:namedview
     pagecolor="#ffffff"
     bordercolor="#666666"
     borderopacity="1"
     objecttolerance="10"
     gridtolerance="10"
     guidetolerance="10"
     inkscape:pageopacity="0"
     inkscape:pageshadow="2"
     inkscape:window-width="1366"
     inkscape:window-height="716"
     id="namedview3392"
     showgrid="false"
     inkscape:zoom="0.21289062"
     inkscape:cx="529.22018"
     inkscape:cy="1467.8899"
     inkscape:window-x="0"
     inkscape:window-y="25"
     inkscape:window-maximized="1"
     inkscape:current-layer="svg3390" />
  <path
     style="fill:#ed2039"
     d="m 946.87498,2491.4266 c -40.48517,-1.0388 -54.89567,-2.2709 -70.9859,-6.0694 -6.0422,-1.4264 -12.3017,-2.5934 -13.9098,-2.5934 -1.6082,0 -4.9433,-0.8437 -7.4115,-1.875 -2.4681,-1.0312 -6.8962,-1.8836 -9.8401,-1.8942 -2.944,-0.012 -9.5714,-1.0663 -14.7277,-2.346 -5.1562,-1.2799 -12.1875,-2.7013 -15.625,-3.1587 -3.4375,-0.4575 -9.0625,-1.363 -12.5,-2.0122 -3.4375,-0.6493 -11.3125,-2.1095 -17.5,-3.2449 -6.1875,-1.1354 -21.0937,-4.5526 -33.125,-7.5937 -12.0312,-3.0413 -24.6875,-6.11 -28.125,-6.8195 -3.4375,-0.7095 -9.9062,-2.0393 -14.375,-2.9549 -14.8144,-3.0353 -19.2868,-4.1743 -29.23,-7.4441 -5.4203,-1.7826 -15.264,-4.143 -21.875,-5.2455 -7.0238,-1.1714 -14.8776,-3.4159 -18.895,-5.4 -3.7812,-1.8674 -8.8437,-3.7711 -11.25,-4.23 -6.0821,-1.1605 -25.1459,-6.9091 -27.8898,-8.41 -1.2456,-0.6815 -6.3081,-2.2881 -11.25,-3.5702 -13.6876,-3.5512 -36.6424,-11.8298 -47.1102,-16.9903 -19.3765,-9.5526 -27.1128,-14.9924 -32.0608,-22.5439 -4.2119,-6.4282 1.611,-16.6213 10.6261,-18.6013 4.0736,-0.8947 23.1745,2.1526 30.8097,4.9154 2.75,0.9951 6.4063,1.84 8.125,1.8776 3.9573,0.086 11.4132,2.4464 25.4484,8.0545 6.0903,2.4335 13.1216,4.7914 15.625,5.2396 2.5034,0.4484 8.0553,2.4842 12.3375,4.5241 4.2823,2.0398 11.5948,4.7408 16.25,6.0022 4.6553,1.2615 17.6022,5.7084 28.7711,9.8822 11.1688,4.1738 21.1653,7.5888 22.2144,7.5888 1.0491,0 7.0985,2.0381 13.443,4.5291 6.3446,2.4911 14.6294,4.9343 18.4106,5.4295 3.7813,0.4951 11.0938,2.4609 16.25,4.3684 5.1563,1.9075 14.7188,4.5536 21.25,5.8804 6.5313,1.3267 15.5313,3.5048 20,4.8403 15.2073,4.5447 22.3487,6.1328 33.884,7.5353 6.3378,0.7706 14.9473,2.4973 19.1322,3.8369 4.1848,1.3397 11.5463,3.0028 16.3588,3.6957 4.8125,0.693 11.8776,1.7943 15.7003,2.4473 3.8226,0.6528 8.8851,1.1925 11.25,1.1991 2.3648,0.012 12.456,1.4709 22.42473,3.2539 9.9687,1.783 23.75,3.691 30.625,4.24 6.875,0.549 19.25,1.6186 27.49997,2.377 57.82792,5.3155 90.77662,6.5796 171.83942,6.5925 79.5256,0.013 94.1028,-0.5283 122.5355,-4.5482 7.2188,-1.0206 18.75,-2.4245 25.625,-3.1197 19.5898,-1.9813 63.8674,-12.1153 76.7091,-17.5569 4.56,-1.9322 10.597,-4.128 13.4155,-4.8795 6.9036,-1.8406 33.464,-14.5424 35.4742,-16.9646 1.7658,-2.1276 11.8379,-6.9065 14.5565,-6.9065 0.9418,0 3.8235,-1.8921 6.4036,-4.2046 2.5801,-2.3127 6.4126,-5.0844 8.5166,-6.1597 4.0258,-2.0572 21.8614,-15.9342 29.2995,-22.7965 2.4063,-2.22 6.0625,-4.5707 8.125,-5.224 2.0625,-0.6532 4.4339,-2.5482 5.2698,-4.2112 0.8357,-1.663 3.1396,-4.431 5.1195,-6.1513 6.5667,-5.7053 12.925,-16.0285 15.231,-24.7283 1.2243,-4.6197 3.0813,-10.3682 4.1265,-12.7744 3.4632,-7.9733 5.0492,-24.3689 4.1675,-43.0806 -0.912,-19.3517 -2.3023,-26.4244 -8.1173,-41.2944 -2.1507,-5.5 -3.9131,-10.6641 -3.9162,-11.4759 -0.012,-2.033 -4.5022,-9.0946 -11.5683,-18.1771 -3.2656,-4.1974 -5.9375,-8.095 -5.9375,-8.6611 0,-0.5663 -2.3906,-2.5323 -5.3125,-4.369 -2.9219,-1.8368 -5.9845,-4.2852 -6.806,-5.4409 -0.8214,-1.1558 -4.7589,-4.2928 -8.75,-6.971 -3.991,-2.6783 -9.3102,-6.5651 -11.8205,-8.6373 -4.9065,-4.0505 -9.6925,-7.6455 -14.1686,-10.6427 -1.54,-1.0313 -7.799,-5.6638 -13.9088,-10.2945 -6.1097,-4.6308 -14.2023,-9.9523 -17.9836,-11.8258 -3.7812,-1.8733 -8.9712,-4.9046 -11.5332,-6.7358 -2.562,-1.8314 -7.9058,-4.6 -11.875,-6.1527 -3.9693,-1.5525 -13.5774,-5.8418 -21.3515,-9.532 -7.774,-3.6901 -15.3992,-6.7092 -16.9447,-6.7092 -1.5455,0 -4.7325,-1.4185 -7.0823,-3.1521 -2.3499,-1.7337 -6.5373,-3.7554 -9.3054,-4.4929 -2.7681,-0.7374 -11.2204,-4.0624 -18.7829,-7.389 -7.5625,-3.3266 -17.4062,-6.9754 -21.875,-8.1085 -4.4687,-1.133 -11.6322,-3.7268 -15.9189,-5.7638 -4.2866,-2.037 -11.6401,-4.7135 -16.3412,-5.9477 -4.7011,-1.2341 -10.1938,-3.4295 -12.2061,-4.8785 -2.0124,-1.449 -7.315,-3.5313 -11.7838,-4.6274 -4.4687,-1.0961 -10.7094,-3.0727 -13.8682,-4.3926 -3.1588,-1.3199 -8.5025,-2.9921 -11.875,-3.7161 -6.348,-1.3627 -9.5685,-2.5094 -22.5381,-8.0253 -4.211,-1.7909 -8.6293,-3.2561 -9.8185,-3.2561 -1.1892,0 -4.9226,-1.3865 -8.2965,-3.0811 -8.0143,-4.0254 -17.9075,-6.9189 -23.6561,-6.9189 -2.8669,0 -6.3659,-1.1993 -9.2914,-3.1845 -2.5809,-1.7515 -7.5081,-3.7185 -10.9491,-4.371 -8.6401,-1.6386 -16.8562,-4.2556 -23.1519,-7.3745 -2.9259,-1.4495 -7.12,-2.9955 -9.3201,-3.4355 -2.2002,-0.44 -5.4312,-1.5469 -7.1802,-2.4596 -1.7489,-0.9127 -3.9294,-1.663 -4.8454,-1.6672 -0.916,0 -5.416,-1.6462 -10,-3.6488 -4.584,-2.0025 -11.147,-4.0547 -14.5845,-4.5603 -3.4375,-0.5055 -10.6592,-2.8045 -16.0483,-5.1089 -5.389,-2.3043 -11.0981,-4.1897 -12.6869,-4.1897 -1.58892,0 -8.14842,-2.0461 -14.57682,-4.5469 -6.4283,-2.5009 -13.3754,-4.9835 -15.4379,-5.517 -2.0625,-0.5336 -6.8438,-2.1727 -10.625,-3.6426 -3.7813,-1.4699 -11.4822,-3.5004 -17.1133,-4.5123 -12.02767,-2.1613 -19.23767,-4.5428 -23.98297,-7.9218 -1.8872,-1.3438 -5.0844,-2.7992 -7.1049,-3.2343 -2.0206,-0.435 -6.2051,-1.834 -9.2988,-3.1086 -12.0916,-4.9821 -22.08133,-8.4719 -26.58043,-9.2855 -2.588,-0.4681 -8.7755,-2.5614 -13.75,-4.6518 -4.9745,-2.0903 -12.4196,-4.5596 -16.5446,-5.4873 -4.125,-0.9277 -10.8707,-3.1812 -14.9905,-5.0075 -4.1198,-1.8265 -10.7971,-3.8534 -14.8385,-4.5043 -4.0413,-0.6509 -9.3893,-2.2134 -11.8844,-3.4722 -2.4951,-1.2589 -11.2866,-4.4229 -19.5366,-7.031 -8.25,-2.6083 -18.0937,-6.1223 -21.875,-7.8092 -8.3736,-3.7352 -12.7414,-5.332 -63.429,-23.1872 -7.0423,-2.4806 -15.1985,-5.579 -18.125,-6.8851 -2.9266,-1.3062 -8.696,-3.6115 -12.821,-5.123 -4.125,-1.5117 -10.875,-4.3045 -15,-6.2067 -4.125,-1.9021 -10.5098,-4.4371 -14.1886,-5.6332 -3.6787,-1.1963 -9.5849,-4.0031 -13.125,-6.2378 -3.54,-2.2346 -8.6864,-4.9433 -11.4364,-6.0195 -2.75,-1.0761 -9.3333,-3.9857 -14.6297,-6.4658 -5.2963,-2.4802 -9.9937,-4.5094 -10.4386,-4.5094 -1.0338,0 -18.6551,-13.8704 -23.9733,-18.8704 -6.5842,-6.1901 -9.4321,-14.0084 -8.6604,-23.7746 0.8284,-10.4838 3.0487,-15.7528 9.6604,-22.9258 5.3268,-5.7787 20.607,-17.0953 28.6666,-21.2306 15.6061,-8.0072 29.0188,-14.4486 30.0859,-14.4486 0.686,0 3.9004,-1.337 7.1432,-2.971 3.2428,-1.634 7.8138,-3.386 10.1579,-3.8931 2.3441,-0.5072 7.2479,-2.8323 10.8973,-5.1668 6.2394,-3.9912 20.7519,-9.2131 59.9363,-21.5661 8.99,-2.8341 17.0925,-5.153 18.0054,-5.153 0.913,0 6.495,-1.3814 12.4045,-3.0698 5.9095,-1.6882 16.6508,-4.5135 23.8695,-6.2781 25.7477,-6.2941 32.0775,-9.0727 27.3399,-12.0012 -0.9432,-0.583 -6.4961,-2.5724 -12.3399,-4.4209 -5.8437,-1.8484 -13.532,-4.6523 -17.0849,-6.2306 -3.553,-1.5785 -9.7405,-3.7984 -13.75,-4.9333 -10.4127,-2.9471 -30.0697,-10.3064 -36.6651,-13.7267 -5.9283,-3.0745 -18.0404,-8.5693 -21.3049,-9.6653 -1.7657,-0.5929 -8.8863,-5.2112 -31.1951,-20.233 -4.4687,-3.009 -10.375,-7.4145 -13.125,-9.7897 -2.75,-2.3754 -6.8181,-5.2468 -9.0403,-6.3808 -2.2222,-1.134 -5.3159,-3.7897 -6.875,-5.9016 -1.5591,-2.1118 -6.4909,-6.4121 -10.9597,-9.5563 -4.4687,-3.1441 -10.0937,-7.5513 -12.5,-9.7937 -10.2849,-9.5849 -17.7064,-15.519 -19.4089,-15.519 -1.0039,0 -3.5114,-2.3275 -5.5721,-5.1722 -2.0608,-2.8448 -9.4083,-10.3584 -16.328,-16.6969 -6.9196,-6.3386 -13.3721,-12.654 -14.3389,-14.0343 -0.9668,-1.3802 -6.0406,-5.79 -11.2751,-9.7994 -5.2346,-4.0092 -10.2916,-8.7257 -11.2379,-10.481 -2.1443,-3.9773 -22.3077,-24.7673 -27.723,-28.5843 -2.2049,-1.5543 -5.2034,-4.9513 -6.6635,-7.549 -1.46,-2.5978 -4.573,-5.7563 -6.9178,-7.019 -2.3448,-1.2628 -5.4134,-4.2453 -6.819,-6.6277 -4.0913,-6.9342 -36.7708,-43.306 -44.0632,-49.0415 -1.9098,-1.5021 -4.664,-5.067 -6.1205,-7.922 -3.506,-6.8722 -16.3114,-22.7825 -31.8138,-39.5275 -3.5237,-3.8061 -6.7923,-8.1742 -7.2636,-9.707 -0.4712,-1.5327 -2.4622,-3.7351 -4.4242,-4.8941 -1.9621,-1.159 -4.1979,-3.491 -4.9684,-5.1821 -1.1885,-2.6085 -9.1653,-13.2926 -11.3946,-15.262 -0.3891,-0.3437 -2.4387,-3.1562 -4.5547,-6.25 -2.116,-3.0937 -5.3805,-7.0312 -7.2546,-8.75 -1.874,-1.7187 -4.8102,-5.3245 -6.5249,-8.0127 -1.7146,-2.6883 -4.7411,-6.2539 -6.7254,-7.9237 -1.9843,-1.6697 -3.6079,-3.7537 -3.6079,-4.6311 0,-2.3909 -4.9614,-8.2285 -7.9766,-9.3852 -1.4737,-0.5654 -4.2657,-4.2665 -6.2947,-8.3442 -2.0055,-4.0305 -6.3649,-10.4982 -9.6875,-14.3728 -3.3227,-3.8747 -6.0412,-7.4143 -6.0412,-7.8659 0,-1.3513 -10.3054,-14.9693 -12.5639,-16.6024 -1.1508,-0.8321 -4.3796,-5.363 -7.1751,-10.0686 -2.7956,-4.7055 -7.3729,-11.3269 -10.1719,-14.7141 -2.799,-3.3871 -5.0891,-6.737 -5.0891,-7.4442 0,-0.7071 -1.3284,-2.7182 -2.9519,-4.4692 -1.6236,-1.7509 -3.6701,-4.5577 -4.5479,-6.2372 -2.8605,-5.4733 -19.8538,-30.4677 -23.0201,-33.859 -1.6973,-1.8179 -3.8918,-5.2338 -4.8767,-7.5909 -0.9848,-2.3571 -3.4742,-6.2135 -5.5319,-8.5697 -2.0577,-2.3563 -5.3011,-7.3778 -7.2075,-11.1591 -1.9065,-3.7812 -6.9026,-12.2356 -11.1026,-18.7874 -4.2,-6.5518 -8.1989,-12.801 -8.8864,-13.8871 -2.0327,-3.2114 -5.7111,-8.7477 -10.6809,-16.0755 -2.5645,-3.7812 -6.3636,-10.3873 -8.4425,-14.6801 -2.0789,-4.2928 -5.4728,-9.9427 -7.542,-12.5553 -3.6315,-4.5851 -8.341,-13.1801 -16.5832,-30.2646 -2.1559,-4.4687 -5.1194,-9.8101 -6.5856,-11.8698 -3.448,-4.8436 -7.0408,-11.5317 -7.0408,-13.1069 0,-0.6796 -5.625,-12.67378 -12.5,-26.65368 -6.875,-13.9799 -12.5,-26.00469 -12.5,-26.72189 0,-0.7171 -1.7214,-5.4594 -3.8254,-10.5383 -2.1039,-5.0789 -4.9192,-12.4593 -6.2561,-16.4007 -1.3369,-3.9415 -3.783,-10.129 -5.4357,-13.75 -1.6527,-3.6211 -3.9714,-10.8025 -5.1527,-15.9588 -1.1813,-5.1562 -4.0451,-15.1804 -6.3639,-22.2759 -2.3189,-7.0955 -4.2162,-14.6051 -4.2162,-16.6881 0,-2.0829 -1.3814,-11.465 -3.0698,-20.84906 -6.283,-34.92039 -6.9309,-44.84705 -6.9195,-106.01585 0.011,-58.32985 1.0167,-79.64512 4.3646,-92.49854 1.0311,-3.95877 1.871,-10.0327 1.8664,-13.49763 -0.01,-6.36677 2.9695,-25.64275 5.0285,-32.54988 0.6148,-2.0625 1.4375,-6.5625 1.8281,-10 0.773,-6.8027 1.4971,-9.74357 6.2481,-25.37702 1.7345,-5.70737 3.1536,-11.66619 3.1536,-13.24182 0,-1.57564 1.1605,-6.18722 2.5788,-10.24797 1.4183,-4.06075 4.4638,-13.28944 6.7677,-20.50819 2.304,-7.21875 5.6196,-17.0625 7.3682,-21.875 1.7485,-4.8125 3.2031,-9.43526 3.2322,-10.27279 0.029,-0.83753 3.4745,-8.71253 7.6562,-17.5 12.2259,-25.69172 14.5334,-30.72466 16.2085,-35.35221 0.871,-2.40625 3.7543,-7.31665 6.4073,-10.91201 2.653,-3.59535 5.3991,-8.05076 6.1026,-9.90091 0.7034,-1.85015 3.1269,-5.93975 5.3855,-9.088 2.2586,-3.14824 5.0571,-8.29648 6.2188,-11.44053 1.1735,-3.1762 3.7392,-6.91935 5.7735,-8.4234 2.0138,-1.48884 6.1649,-6.57702 9.2248,-11.3071 4.6925,-7.25392 16.3681,-23.42742 26.4279,-36.60897 1.3877,-1.81825 4.4918,-5.99572 6.898,-9.28324 2.4063,-3.28751 6.625,-8.61495 9.375,-11.83873 2.75,-3.22377 6.9688,-8.5286 9.375,-11.7885 2.4063,-3.2599 6.7656,-8.59688 9.6875,-11.85997 2.9219,-3.2631 5.3125,-6.42989 5.3125,-7.0373 0,-1.04175 6.9421,-8.44874 20.7845,-22.17629 19.0697,-18.91142 23.8449,-23.33505 25.1897,-23.33505 0.8197,0 2.9268,-2.17059 4.6824,-4.82351 1.7556,-2.65294 5.5605,-6.55694 8.4552,-8.67557 2.8948,-2.11861 7.232,-5.62792 9.6382,-7.79846 2.4063,-2.17054 8.3125,-6.56656 13.125,-9.76893 9.7373,-6.47945 17.472,-12.15023 21.249,-15.57887 1.3756,-1.24868 4.4698,-3.4829 6.876,-4.96492 2.4063,-1.48201 6.2316,-4.37348 8.5007,-6.42546 3.8466,-3.47859 5.6995,-4.76022 16.3934,-11.33928 2.2349,-1.375 7.7565,-4.89062 12.2701,-7.8125 4.5136,-2.92187 8.7548,-5.3125 9.4249,-5.3125 0.6702,0 4.8078,-2.56131 9.1948,-5.69181 4.387,-3.13049 9.8022,-6.31426 12.0337,-7.07505 2.2316,-0.7608 5.3989,-2.41823 7.0385,-3.6832 1.6396,-1.26496 3.987,-2.29994 5.2166,-2.29994 1.2295,0 4.0738,-1.54687 6.3206,-3.4375 4.7101,-3.9635 31.9124,-17.8125 34.9874,-17.8125 1.1348,0 2.7444,-0.82072 3.5769,-1.82385 1.296,-1.56168 23.8778,-13.176151 25.6181,-13.176151 0.3365,0 4.3633,-1.71826 8.9486,-3.81836 7.8653,-3.60239 10.4595,-4.65102 24.2257,-9.79241 3.0938,-1.15546 9.9404,-4.19072 15.2149,-6.74503 5.2744,-2.55431 10.1684,-4.6442 10.8755,-4.6442 0.7072,0 7.3605,-1.93265 14.7852,-4.29479 7.4247,-2.36213 17.7182,-5.51441 22.8744,-7.00508 5.1563,-1.490663 13.0313,-3.801453 17.5,-5.135093 4.4688,-1.33364 10.9375,-3.25098 14.375,-4.26075 3.4375,-1.00978 10.75,-3.21926 16.25,-4.90997 12.3676,-3.801811 29.0178,-7.622601 38.125,-8.748651 3.7813,-0.46753 10.5313,-1.88808 15,-3.15676 4.4688,-1.26869 13.0552,-2.69618 19.0811,-3.1722 6.0258,-0.47602 11.242,-1.32827 11.5916,-1.89388 0.3496,-0.56562 3.2944,-1.37496 6.544,-1.79855 3.2496,-0.42358 13.5021,-1.85514 22.7833,-3.181239 9.2813,-1.3261 23.3438,-3.07238 31.25,-3.88064 19.8145,-2.02563 129.7731,-2.80291 151.875,-1.07358 9.625,0.7531 26.3695,1.87643 37.21012,2.49629 17.6106,1.00699 37.1447,3.803489 53.4148,7.646909 3.0938,0.73083 10.125,1.81848 15.625,2.41702 5.5,0.59854 12.25,1.73061 15,2.5157 2.75,0.78511 8.375,2.00579 12.5,2.71263 4.125,0.70685 10.5938,2.28722 14.375,3.51193 3.7813,1.22472 9.6875,2.62546 13.125,3.11276 6.0948,0.864 9.4641,1.687361 27.5,6.720281 4.8125,1.34293 11,3.00699 13.75,3.69791 2.75,0.69093 9.5998,2.91251 15.2217,4.93684 5.6219,2.024333 12.3719,4.076573 15,4.560543 2.628,0.48396 7.3096,2.01433 10.4033,3.40081 3.0938,1.38648 9.5625,3.62718 14.375,4.97932 4.8125,1.35214 10.1563,3.39793 11.875,4.5462 4.7627,3.18187 8.8809,5.2552 10.4554,5.26374 0.7808,0.004 3.0103,0.83735 4.9544,1.85136 1.9442,1.01401 7.9253,3.23062 13.2915,4.92578 5.3661,1.69517 13.6192,5.02315 18.3402,7.39552 21.574,10.841351 37.6144,18.319641 39.2941,18.319641 1.0088,0 4.074,1.52657 6.8118,3.3924 4.5344,3.09027 15.7757,9.2145 28.7276,15.65059 2.75,1.36653 6.1326,3.52031 7.517,4.78616 1.3845,1.26584 4.7314,3.22671 7.4377,4.35749 2.7063,1.13077 7.1987,3.89013 9.9829,6.13191 2.7844,2.24177 7.8749,5.67492 11.3124,7.62924 3.4375,1.95431 9.0625,5.60376 12.5,8.10988 3.4375,2.50614 8.4674,5.34652 11.1775,6.31197 2.7103,0.96545 7.8239,4.56786 11.3637,8.00536 3.5399,3.4375 12.6384,10.93105 20.219,16.65234 7.5805,5.72128 15.9404,12.61191 18.5776,15.3125 2.6369,2.70058 5.3012,4.91016 5.9203,4.91016 2.1743,0 15.6,10.66182 17.6325,14.00244 1.1302,1.8576 3.867,4.62646 6.0822,6.15305 11.7183,8.07632 71.3704,69.10593 74.2888,76.0045 0.8315,1.9653 3.4251,4.75583 5.7638,6.20118 3.6952,2.28383 6.3614,5.53382 11.5057,14.02599 2.7129,4.47837 6.2952,9.45659 9.6042,13.34688 1.9222,2.25996 4.3251,5.91621 5.3397,8.125 1.0145,2.20877 5.7946,9.03249 10.6224,15.1638 4.8276,6.13131 8.7776,12.1702 8.7776,13.41976 0,1.24956 2.137,3.68613 4.7489,5.41458 2.8756,1.90301 5.3765,4.87843 6.3401,7.54312 1.75,4.83971 12.1003,23.87249 14.601,26.8497 1.5331,1.82514 8.9894,15.77536 22.7156,42.5 3.7077,7.21875 8.6253,18.75 10.928,25.625 2.3027,6.875 5.6432,15.3125 7.4234,18.75 1.7802,3.4375 4.4016,11.3125 5.8254,17.5 1.4239,6.1875 3.394,13.09721 4.3781,15.35491 0.9843,2.2577 1.7895,5.59276 1.7895,7.41125 0,1.81849 0.5356,5.03378 1.1902,7.14509 1.9285,6.21912 4.6783,20.32019 6.9643,35.71375 1.1743,7.90625 2.646,16.04512 3.2706,18.08639 0.6247,2.04125 1.9692,13.29125 2.9877,25 1.0185,11.70873 2.4093,24.66361 3.0908,28.78861 0.9624,5.82468 2.2558,39.44116 2.7415,71.25 0.1965,12.87699 -1.9198,59.5528 -2.8282,62.37403 -0.6418,1.99322 -1.1775,5.93072 -1.1904,8.75 -0.034,7.42202 -4.4894,36.97143 -6.2385,41.37593 -0.819,2.0625 -2.246,9.3982 -3.1711,16.3015 -0.9251,6.9033 -2.7469,15.0596 -4.0485,18.125 -1.3017,3.0655 -3.6443,10.3548 -5.2058,16.1985 -1.5615,5.8438 -3.7011,12.2995 -4.7545,14.346 -2.7522,5.3464 -11.5581,30.6994 -11.5581,33.2767 0,2.1296 -3.6026,9.8892 -5.1659,11.1264 -0.435,0.3443 -6.1842,11.87599 -12.7761,25.62599 -6.5919,13.75 -13.0989,26.96878 -14.4601,29.37498 -1.3611,2.4063 -4.6907,8.5938 -7.3989,13.75 -2.7084,5.1563 -6.9872,13.3041 -9.5088,18.1062 -2.5213,4.8022 -5.3292,9.5835 -6.2395,10.625 -0.9102,1.0416 -2.0648,3.3001 -2.5657,5.0188 -0.501,1.7188 -2.4503,4.8125 -4.3318,6.875 -1.8815,2.0625 -4.8398,6.2813 -6.5741,9.375 -9.403,16.7737 -15.6279,27.3379 -17.8541,30.3001 -1.375,1.8295 -5.0313,7.6037 -8.125,12.8317 -3.0938,5.2279 -6.8687,11.3025 -8.389,13.4992 -11.1033,16.0446 -16.611,24.5677 -16.611,25.7057 0,0.7295 -1.7927,3.3682 -3.984,5.8638 -2.1911,2.4956 -5.4255,6.6753 -7.1875,9.288 -1.7619,2.6128 -6.4753,9.2958 -10.474,14.851 -3.9989,5.5553 -8.6214,12.6411 -10.2724,15.7462 -1.651,3.1051 -6.25,9.0572 -10.22,13.2269 -3.97,4.1697 -7.7279,8.5333 -8.3509,9.6968 -1.5435,2.883 -14.1523,19.9104 -18.4936,24.9742 -1.9372,2.2598 -4.9501,6.9264 -6.6952,10.3701 -1.7452,3.4439 -6.3847,9.5072 -10.3102,13.474 -7.217,7.2932 -25.4937,29.2193 -29.5175,35.4114 -1.2023,1.8501 -4.2033,5.503 -6.669,8.1174 -2.4657,2.6144 -6.919,8.5536 -9.8962,13.1985 -2.9773,4.6447 -5.916,8.445 -6.5305,8.445 -0.6146,0 -5.9303,5.4844 -11.8125,12.1875 -5.8824,6.7031 -12.2644,13.875 -14.1824,15.9375 -3.922,4.2175 -18.8061,20.6577 -26.9247,29.7396 -9.7124,10.8649 -13.9579,15.432 -27.8544,29.965 -7.5625,7.9088 -16.002,16.8358 -18.7544,19.8375 -2.7525,3.0019 -7.815,8.0368 -11.25,11.1886 -3.4351,3.152 -7.698,7.3708 -9.473,9.375 -2.682,3.0284 -21.7967,21.4049 -47.9979,46.1443 -2.9125,2.75 -9.3836,8.375 -14.3803,12.5 -4.9967,4.125 -10.2795,8.884 -11.7397,10.5755 -1.4601,1.6915 -4.2862,4.504 -6.2802,6.25 -1.994,1.746 -6.5455,5.7604 -10.1145,8.9207 -3.5691,3.1605 -8.7716,7.0292 -11.5612,8.597 -2.7896,1.5678 -5.7626,4.1412 -6.6068,5.7184 -0.8441,1.5773 -3.8539,4.5615 -6.6884,6.6315 -2.8345,2.0701 -7.4036,5.8013 -10.1536,8.2916 -2.75,2.4903 -8.6563,7.0772 -13.125,10.1932 -4.4688,3.1158 -11.2188,7.8871 -15,10.6026 -3.7813,2.7156 -9.125,6.3994 -11.875,8.186 -2.75,1.7867 -6.546,5.0901 -8.4355,7.3407 -1.8896,2.2508 -6.3853,5.5622 -9.9905,7.3587 -3.6052,1.7965 -11.0592,6.3852 -16.5645,10.197 -17.5493,12.151 -30.9939,20.4125 -40.6345,24.9691 -5.1563,2.4371 -10.7813,5.7385 -12.5,7.3362 -1.7188,1.5979 -5.375,3.6057 -8.125,4.4618 -2.75,0.8561 -8.4032,3.4032 -12.5627,5.6604 -4.1595,2.257 -10.0606,4.7763 -13.1136,5.5983 -3.0529,0.8222 -6.9622,2.4782 -8.6872,3.6802 -1.725,1.2018 -7.63642,4.5165 -13.13642,7.3656 -11.6152,6.017 -27.3257,18.0986 -27.8872,21.4456 -0.5709,3.4028 5.1948,11.8831 15.3268,22.543 8.4271,8.8663 14.4354,18.3045 14.4354,22.6761 0,2.3179 -5.5832,8.1233 -9.974,10.3709 -7.2137,3.6926 -41.8523,9.3795 -72.17247,11.8489 -14.8016,1.2055 -21.3819,1.1165 -39.37503,-0.5324 -24.9351,-2.285 -26.9393,-2.6222 -33.9213,-5.7072 -2.8502,-1.2594 -8.1656,-2.6845 -11.8121,-3.167 -7.8802,-1.0428 -13.3704,-4.508 -16.897,-10.6649 -2.5229,-4.4044 -2.5305,-4.6295 -0.3508,-10.337 1.2255,-3.209 4.4467,-8.7768 7.1582,-12.3726 5.8787,-7.796 7.1238,-11.6693 4.5717,-14.2215 -1.6294,-1.6293 -2.6428,-1.5559 -8.5996,0.6231 -12.1048,4.4279 -14.1247,5.0722 -24.2526,7.7372 -45.9607,12.094 -55.3157,14.8043 -73.125,21.1848 -7.2187,2.5862 -17.3437,5.6964 -22.5,6.9114 -5.1562,1.215 -12.6481,3.844 -16.6486,5.8421 -6.9973,3.4949 -21.1441,8.4604 -24.1993,8.4939 -0.8101,0.013 -4.7476,1.932 -8.75,4.2736 -4.0024,2.3416 -10.3708,5.13 -14.1521,6.1965 -4.3531,1.2277 -8.5945,3.5625 -11.5625,6.3649 -3.927,3.7076 -4.6875,5.2527 -4.6875,9.5237 0,4.648 0.7398,5.8164 8.376,13.2304 4.6068,4.4727 10.6537,9.288 13.4375,10.7007 2.7838,1.4127 7.3115,4.0749 10.0615,5.9163 5.6813,3.804 15.8481,8.6785 29.0336,13.9201 4.9684,1.975 14.3825,6.4145 20.9201,9.8655 6.5377,3.4509 13.0835,6.2744 14.5463,6.2744 1.4628,0 4.705,1.1037 7.2048,2.4529 5.5507,2.9955 38.1937,15.3595 69.5452,26.3412 8.25,2.8898 15.87,6.0145 16.9334,6.9438 1.0633,0.9292 6.0419,2.5538 11.0635,3.6101 5.068,1.0661 12.6036,3.8631 16.9368,6.2864 4.2936,2.4011 8.7816,4.3656 9.9732,4.3656 1.1917,0 5.6377,1.3012 9.8799,2.8915 14.0778,5.2776 23.837,8.4391 35.83823,11.61 6.5312,1.7256 14.125,4.1437 16.875,5.3735 6.2834,2.81 17.6797,6.7309 33.75,11.6119 6.87497,2.0881 14.46867,4.7817 16.87497,5.9858 2.4062,1.2042 6.4184,2.5597 8.9159,3.0124 2.4974,0.4528 10.4768,3.06 17.7319,5.794 7.2551,2.734 14.7742,4.976 16.7092,4.9823 1.9349,0.012 6.33052,1.395 9.76792,3.086 3.4375,1.6908 6.9078,3.092 7.7117,3.1135 2.4549,0.066 29.5553,8.7838 33.3271,10.7213 1.9463,0.9998 4.3276,1.8178 5.2916,1.8178 0.9641,0 8.3716,2.2126 16.4612,4.9169 8.0896,2.7042 18.3646,5.892 22.8334,7.0837 4.4687,1.1919 11.0421,3.4793 14.6074,5.0831 3.5653,1.604 7.6929,2.9163 9.1723,2.9163 1.4795,0 9.09,2.5312 16.9121,5.625 7.8222,3.0937 15.0974,5.625 16.1671,5.625 1.0697,0 6.8547,1.9177 12.8555,4.2615 6.0008,2.3439 14.5668,5.1977 19.0356,6.3419 4.4687,1.1441 11.5,3.6922 15.625,5.6622 4.125,1.9701 16.7812,6.5068 28.125,10.0814 11.3437,3.5746 24.3128,8.1027 28.8202,10.0626 4.5073,1.9598 10.976,4.0958 14.375,4.7468 5.6475,1.0817 11.9942,3.4297 16.8048,6.2173 3.3374,1.9339 7.957,3.7069 16.25,6.2369 8.8796,2.7088 28.0879,10.5568 30.4157,12.427 0.8027,0.6449 5.678,2.6724 10.8343,4.5056 5.1562,1.8333 13.2166,5.2735 17.912,7.645 4.6954,2.3714 9.5569,4.3118 10.8032,4.3118 2.6072,0 27.5642,12.7246 33.1598,16.907 2.0625,1.5415 5.0002,3.1824 6.5282,3.6462 1.5282,0.464 6.7397,3.9042 11.5813,7.645 4.8416,3.7409 11.9509,8.5782 15.7984,10.7495 3.8475,2.1714 11.146,7.7964 16.2189,12.5002 5.0729,4.7036 9.6816,8.5521 10.2415,8.5521 2.5462,0 28.4402,27.1537 34.6317,36.3167 2.0625,3.0523 5.6633,8.0829 8.0016,11.179 2.3384,3.096 6.5329,10.4105 9.321,16.2543 2.7881,5.8437 5.4043,10.9062 5.8135,11.25 2.9385,2.468 7.0715,15.7001 8.7848,28.125 2.7255,19.7649 2.883,31.3986 0.589,43.5066 -4.418,23.3191 -7.7266,33.0476 -14.7691,43.426 -2.8824,4.2476 -7.0692,10.613 -9.3037,14.1453 -2.2346,3.5321 -5.6767,8.1096 -7.6492,10.1721 -1.9724,2.0625 -4.7363,6 -6.1418,8.75 -1.4055,2.75 -5.0957,7.1044 -8.2005,9.6764 -3.1049,2.572 -5.9776,5.7241 -6.3841,7.0047 -0.4064,1.2806 -2.8365,3.395 -5.4003,4.6986 -2.5636,1.3037 -7.2247,4.9015 -10.3579,7.9953 -3.1332,3.0937 -10.326,8.4375 -15.9843,11.875 -5.6581,3.4375 -12.029,7.6562 -14.1575,9.375 -5.0842,4.1054 -15.6684,10.1466 -27.2865,15.5747 -5.1562,2.4092 -13.0312,6.2867 -17.5,8.6168 -4.4687,2.33 -11.5,5.1991 -15.625,6.3756 -4.125,1.1766 -9.3472,2.9365 -11.6049,3.911 -2.2577,0.9745 -4.8666,1.7719 -5.7977,1.7719 -0.931,0 -6.6775,1.467 -12.77,3.26 -6.0926,1.7929 -15.5774,4.0257 -21.0774,4.9617 -20.7282,3.5278 -25.2634,4.322 -35,6.13 -5.5,1.0213 -24.3437,3.1213 -41.875,4.6667 -30.0216,2.6465 -38.5616,2.8175 -146.875,2.9421 -63.25,0.072 -131.31242,-0.2863 -151.24992,-0.7978 z m -169.375,-1325.6788 c 12.0313,-0.8985 26.375,-2.2051 31.875,-2.9036 5.5,-0.6985 17.0313,-2.1361 25.625,-3.1946 8.5938,-1.0586 17.5938,-2.7239 20,-3.7007 2.4063,-0.9767 7.1875,-2.1295 10.625,-2.5616 5.6987,-0.7163 10.5866,-1.9654 37.50003,-9.5831 4.8125,-1.3621 17.1875,-5.7652 27.5,-9.7846 10.31247,-4.0194 21.56247,-8.2274 24.99997,-9.3511 3.4375,-1.1237 8.2187,-3.3303 10.625,-4.9036 2.4062,-1.5733 6.4502,-3.5433 8.9866,-4.3777 2.5364,-0.8345 8.4163,-4.0161 13.0664,-7.0703 4.6501,-3.0542 9.7677,-5.5531 11.3725,-5.5531 1.78162,0 4.96832,-2.0821 8.18352,-5.347 2.8963,-2.9409 9.0374,-7.2617 13.6469,-9.602 4.6096,-2.3402 12.6454,-8.0903 17.8574,-12.778 5.2119,-4.6876 10.252,-8.523 11.2002,-8.523 0.9482,0 3.8811,-2.4381 6.5177,-5.418 2.6365,-2.9799 7.1664,-6.9803 10.0663,-8.8897 2.8999,-1.9095 5.5939,-4.4839 5.9865,-5.721 0.3927,-1.2372 2.6119,-3.697 4.9317,-5.4664 5.2594,-4.0116 6.2357,-5.0325 13.1842,-13.7875 3.0938,-3.8981 8.0156,-9.8917 10.9375,-13.3191 2.9219,-3.4275 5.3125,-6.9314 5.3125,-7.7865 0,-0.855 1.6875,-3.4022 3.75,-5.6604 2.0625,-2.25808 3.75,-4.77588 3.75,-5.59508 0,-0.8191 1.9012,-4.1634 4.2249,-7.4317 2.3237,-3.2684 5.4794,-8.8916 7.0126,-12.496 1.5332,-3.6045 3.6223,-7.5 4.6425,-8.6568 2.3948,-2.7154 11.8187,-27.92549 16.7364,-44.77179 2.1072,-7.2188 5.281,-21.2813 7.0528,-31.2501 2.9449,-16.5685 3.2288,-21.1978 3.3065,-53.90911 0.058,-24.29033 -0.3571,-36.33528 -1.2911,-37.5 -0.7569,-0.94371 -1.7652,-4.93376 -2.2407,-8.86676 -0.4756,-3.93302 -2.5273,-12.37052 -4.5594,-18.75 -2.0321,-6.3795 -4.0188,-13.56784 -4.4148,-15.97409 -0.3961,-2.40625 -1.3145,-5.48723 -2.0409,-6.8466 -0.7265,-1.35939 -3.1285,-7.076 -5.3378,-12.70359 -2.2093,-5.62759 -5.7779,-12.84131 -7.9302,-16.03049 -5.4629,-8.09437 -7.6608,-12.60458 -7.6608,-15.72003 0,-1.47118 -1.7277,-4.17099 -3.8392,-5.99958 -2.1116,-1.82859 -5.8964,-6.13721 -8.4108,-9.57471 -2.5143,-3.4375 -7.4146,-9.0625 -10.8895,-12.5 -3.4749,-3.4375 -10.9121,-11.03125 -16.527,-16.875 -13.2807,-13.82185 -22.8933,-22.25491 -32.876,-28.84198 -4.4454,-2.93324 -10.3325,-7.24672 -13.0825,-9.58552 -2.75,-2.33879 -10.3437,-6.87859 -16.875,-10.08845 -6.5313,-3.20985 -13.0179,-7.10689 -14.4148,-8.66007 -1.3968,-1.55319 -3.3225,-2.82398 -4.2793,-2.82398 -0.9568,0 -8.77682,-3.40646 -17.37782,-7.56991 -8.6009,-4.16345 -21.3261,-9.43347 -28.2782,-11.71113 -6.9521,-2.27767 -14.4337,-5.06867 -16.6257,-6.20222 -5.58477,-2.888 -32.68027,-11.7105 -44.64907,-14.53809 -5.5,-1.29936 -13.65623,-3.8448 -18.12503,-5.65656 -4.4687,-1.81175 -10.9375,-4.03045 -14.375,-4.93045 -3.4375,-0.9 -7.9375,-2.23374 -10,-2.96387 -2.0625,-0.73012 -9.6562,-3.07118 -16.875,-5.20237 -7.2187,-2.13118 -15.0937,-4.6205 -17.5,-5.53181 -2.4062,-0.91131 -12.25,-3.79998 -21.875,-6.41925 -9.625,-2.61928 -21.1562,-6.54614 -25.625,-8.72638 -4.4687,-2.18024 -10.7969,-5.21437 -14.0625,-6.74252 -3.2656,-1.52815 -5.9375,-3.24715 -5.9375,-3.82 0,-0.57287 -1.987,-1.69733 -4.4155,-2.49883 -5.3546,-1.76717 -21.7463,-13.87562 -28.9585,-21.39155 -2.887,-3.00854 -6.7382,-8.56381 -8.5582,-12.34506 -1.82,-3.78125 -4.179,-8.52565 -5.2422,-10.54311 -2.5539,-4.84623 -4.4242,-22.87772 -3.5092,-33.83189 0.4476,-5.3588 1.892,-11.17229 3.7269,-15 1.6479,-3.4375 3.9139,-8.5 5.0356,-11.25 2.7508,-6.74391 10.5742,-14.49603 22.1121,-21.91049 10.0651,-6.46811 12.807,-7.41849 32.934,-11.41549 10.5493,-2.09497 15.3848,-2.36037 30.9857,-1.70071 10.1671,0.4299 23.1046,1.79805 28.75,3.04034 14.3191,3.15096 44.2564,13.40701 48.821,16.72534 2.089,1.51856 7.2807,4.72976 11.53733,7.13601 22.2665,12.58722 53.5787,35.28442 57.36717,41.58356 1.144,1.9022 4.7145,4.80195 7.9344,6.44389 3.8565,1.96652 6.6859,4.55185 8.2907,7.57554 1.34,2.5246 4.0232,5.41076 5.9627,6.41368 1.9394,1.00292 8.5122,6.72508 14.6063,12.71592 16.8234,16.53846 25.22392,24.01741 26.97662,24.01741 0.8727,0 2.349,0.9183 3.2805,2.04066 3.3855,4.07933 19.4205,14.99525 26.7375,18.20178 13.0135,5.70287 35.3034,7.70133 47.5401,4.26232 18.1517,-5.10139 22.3757,-7.42255 33.3884,-18.3473 5.8394,-5.79286 11.0427,-11.89989 11.5629,-13.57119 0.5201,-1.6713 2.4695,-5.1423 4.3319,-7.71333 7.4867,-10.33504 12.0979,-32.39223 10.8138,-51.72638 -1.4138,-21.28633 -2.8279,-32.99071 -4.1881,-34.66549 -0.7174,-0.88333 -2.5385,-6.10607 -4.0468,-11.60607 -4.005,-14.60369 -19.4433,-50.59405 -22.5178,-52.49416 -0.7188,-0.44428 -2.7782,-3.72108 -4.5765,-7.2818 -1.7982,-3.56073 -5.4438,-9.51874 -8.1012,-13.24003 -2.6574,-3.7213 -4.8317,-7.4994 -4.8317,-8.39577 0,-0.89639 -2.3906,-4.39122 -5.3125,-7.76629 -2.9219,-3.37508 -7.4159,-8.80785 -9.9868,-12.07285 -10.1122,-12.84245 -17.6928,-20.70766 -23.9816,-24.88194 -3.616,-2.40015 -8.0801,-6.33781 -9.9202,-8.75035 -3.8254,-5.01531 -20.7738,-14.75115 -30.975,-17.7932 -9.3211,-2.77966 -22.48542,-1.68832 -37.33542,3.09518 -29.0847,9.36876 -30.0546,9.58121 -43.73837,9.58121 -11.5031,0 -15.5192,-0.64815 -32.5,-5.24509 -10.6563,-2.88478 -24.43753,-6.90571 -30.62503,-8.93537 -6.1875,-2.02965 -14.3437,-4.09046 -18.125,-4.57956 -3.7812,-0.48912 -16.7187,-3.30456 -28.75,-6.25655 -12.0312,-2.95199 -26.0537,-5.74674 -31.161,-6.21057 -5.1074,-0.46381 -13.8261,-1.68531 -19.375,-2.71442 -16.7391,-3.10449 -65.7502,-3.72636 -88.5979,-1.12418 -36.9961,4.21358 -46.4246,5.6643 -64.6161,9.94224 -4.4687,1.05088 -9.5312,1.9339 -11.25,1.96229 -1.7187,0.0284 -4.634,0.83889 -6.4783,1.8011 -1.8443,0.96221 -5.2193,2.12336 -7.5,2.58031 -6.8306,1.36856 -16.121,4.47715 -25.3967,8.49778 -4.8125,2.08601 -10.4375,4.22331 -12.5,4.74956 -5.0294,1.28324 -17.016,6.39331 -20.7767,8.85737 -1.6683,1.09317 -6.1136,3.2769 -9.8783,4.85274 -3.7647,1.57584 -9.5182,4.7399 -12.7854,7.03126 -3.2672,2.29135 -6.5628,4.16609 -7.3236,4.16609 -3.025,0 -30.9979,18.59355 -39.0233,25.93874 -4.6955,4.29756 -9.8266,8.13731 -11.4023,8.5328 -1.5757,0.39547 -3.5234,1.9418 -4.3281,3.43626 -0.8048,1.49446 -4.3925,4.8776 -7.9727,7.51809 -9.3084,6.86507 -27.1222,24.38067 -31.4171,30.89112 -2.0116,3.04938 -4.976,6.58143 -6.5875,7.84903 -1.6114,1.26759 -3.8386,4.08316 -4.9493,6.25684 -1.1107,2.17366 -2.7421,4.37687 -3.6255,4.89601 -2.1648,1.27227 -15.3138,20.13356 -16.8468,24.16546 -0.6726,1.76925 -4.5809,9.94648 -8.6849,18.1716 -4.1041,8.22513 -8.3431,17.60174 -9.4201,20.83691 -1.077,3.23518 -3.2758,9.53839 -4.8862,14.00714 -5.515,15.3034 -6.9427,20.64464 -9.5221,35.625 -3.233,18.7757 -4.4885,52.12234 -2.5415,67.5 0.7834,6.1875 1.9292,15.58941 2.5462,20.89313 0.617,5.30372 2.499,14.30372 4.1822,20 1.6833,5.69628 3.7692,13.45062 4.6355,17.23187 1.499,6.54351 7.3404,20.55249 12.5091,30 1.3165,2.40625 4.3971,8.3125 6.8459,13.125 5.0902,10.00358 13.1339,22.76144 19.065,30.23843 2.2344,2.81673 4.0625,5.69075 4.0625,6.3867 0,0.69595 2.8257,3.2954 6.2793,5.77656 3.7157,2.66946 7.1446,6.41716 8.3988,9.17975 1.1658,2.56771 4.9495,7.80975 8.4082,11.64896 3.4588,3.83923 7.9863,8.90173 10.0611,11.25 6.4234,7.26995 19.3642,17.9045 24.8028,20.38249 2.8523,1.2996 7.1522,4.8343 9.5554,7.8549 2.4032,3.0206 6.0569,6.60312 8.1194,7.96115 2.0625,1.35804 7.9688,5.54754 13.125,9.31001 5.1563,3.76246 11.9063,8.35559 15,10.20694 3.0938,1.85135 8.2316,5.23652 11.4175,7.5226 3.1858,2.28609 6.1305,4.15651 6.5437,4.15651 0.4132,0 3.4316,1.6457 6.7075,3.6571 3.276,2.01141 9.1401,4.84538 13.0313,6.29773 3.9054,1.45762 7.9248,3.93755 8.9719,5.53556 1.3002,1.98446 3.5962,3.14471 7.3,3.68909 2.9717,0.43677 9.2677,2.76882 13.9911,5.18232 4.7234,2.41351 9.3717,4.3882 10.3295,4.3882 0.9578,0 2.7182,0.55269 3.912,1.2282 5.5445,3.13735 21.6405,10.0218 23.4312,10.0218 1.1008,0 5.9391,1.67566 10.7519,3.72371 4.8129,2.04804 13.8351,5.11697 20.0495,6.81984 6.2144,1.70288 12.1712,3.82009 13.2373,4.70493 1.0662,0.88485 5.1681,2.26757 9.1153,3.07273 3.9472,0.80517 11.0374,3.14363 15.756,5.19658 4.7187,2.05295 11.9543,4.40787 16.0793,5.23317 4.125,0.8253 8.625,2.4958 10,3.7123 1.375,1.2165 4.9359,2.5801 7.9131,3.0301 2.9772,0.4501 9.446,2.7103 14.375,5.0226 4.9291,2.3124 10.2118,4.5814 11.7394,5.0423 1.5277,0.4609 8.4969,3.6701 15.4873,7.1315 18.8284,9.3233 29.7416,18.9554 41.3976,36.5378 5.7735,8.7091 6.2395,10.7621 6.4168,28.2725 0.201,19.8571 -0.2763,21.2285 -12.2559,35.21239 -10.2718,11.9906 -25.6076,22.4188 -37.1984,25.2949 -4.6064,1.143 -10.9722,3.2269 -14.1464,4.63098 -7.2895,3.2245 -26.2532,5.111 -56.8535,5.6558 -17.587,0.3131 -24.3224,-0.011 -28.125,-1.3538 -2.75,-0.971 -9.9176,-2.089 -15.928,-2.4845 -7.1457,-0.4701 -14.9331,-2.0317 -22.5,-4.51188 -6.3646,-2.0862 -14.3845,-4.672 -17.822,-5.7463 -9.9642,-3.114 -24.4603,-9.1506 -31.4021,-13.0767 -3.5212,-1.9915 -7.1899,-3.6209 -8.1527,-3.6209 -0.9628,0 -3.7069,-1.6046 -6.0979,-3.5658 -2.391,-1.9612 -7.1598,-4.8025 -10.5973,-6.3141 -3.4375,-1.5115 -7.9375,-4.29939 -10,-6.19529 -2.0625,-1.8958 -5.7187,-4.9209 -8.125,-6.7223 -6.4769,-4.8489 -23.75,-21.6232 -23.75,-23.0643 0,-0.6858 -2.8881,-3.6822 -6.4181,-6.6587 -4.2971,-3.6234 -7.466,-7.7157 -9.5889,-12.3832 -1.7439,-3.8343 -4.5785,-9.2214 -6.2993,-11.9714 -8.1304,-12.9939 -17.2042,-26.0404 -22.0999,-31.7758 -2.9627,-3.4709 -5.7715,-8.0628 -6.2418,-10.2042 -0.4704,-2.1414 -2.9696,-5.9469 -5.554,-8.4567 -2.5843,-2.5098 -7.2535,-8.51415 -10.376,-13.34302 -5.6668,-8.76353 -24.5326,-28.09524 -27.4181,-28.09524 -0.8379,0 -3.5159,-1.87588 -5.9512,-4.16861 -4.952,-4.6623 -16.259,-8.33139 -25.6746,-8.33139 -10.6,0 -30.6281,7.2432 -30.6281,11.07671 0,0.49858 -2.856,4.25715 -6.3466,8.35239 -13.4637,15.79571 -14.8792,21.20621 -14.8654,56.82086 0.011,28.5788 1.7864,48.352 5.4433,60.6251 1.0242,3.4375 2.4563,10.624 3.1824,15.97 0.7261,5.346 3.6351,17.15849 6.4643,26.24999 2.8293,9.0915 5.5922,18.2175 6.1397,20.28 0.5476,2.0625 2.1168,6.5625 3.4873,9.99998 1.3704,3.4375 3.4738,9.3438 4.6742,13.125 1.2005,3.7813 2.8319,7.7188 3.6254,8.75 2.1471,2.7902 6.6866,13.6544 8.1655,19.5419 0.7138,2.8418 2.1835,5.9019 3.2659,6.8002 1.0824,0.8983 3.5812,4.829 5.5529,8.7349 5.3348,10.5682 17.6012,26.1269 25.0692,31.798 10.2528,7.7857 18.5181,12.2674 53.0169,28.7474 10.15,4.8486 50.9008,16.9653 63.125,18.7694 3.0938,0.4565 11.0707,2.1864 17.7266,3.8441 6.6558,1.6578 13.7025,3.0141 15.6593,3.0141 1.9568,0 4.6674,0.7615 6.0235,1.6922 1.3561,0.9308 4.7156,2.0175 7.4656,2.4151 9.458,1.3672 35.0073,5.891 40.3305,7.141 2.9317,0.6884 7.4317,1.2605 10,1.2712 2.5682,0.011 12.5445,1.1837 22.1695,2.6065 37.2254,5.5028 104.4721,7.3678 148.125,4.1079 z"
     id="path3400"
     inkscape:connector-curvature="0" />
</svg>
